<?xml version="1.0" encoding="utf-8"?>
<!-- Generator: Adobe Illustrator 25.2.1, SVG Export Plug-In . SVG Version: 6.00 Build 0)  -->
<svg version="1.1" id="Layer_1" xmlns="http://www.w3.org/2000/svg" xmlns:xlink="http://www.w3.org/1999/xlink" x="0px" y="0px"
	 width="769px" height="588px" viewBox="0 0 769 588" enable-background="new 0 0 769 588" xml:space="preserve">
<g>
	<g>
		<path opacity="0.1" fill="#9BC1F9" d="M136.8,510.9h561.4c46.5-38.8,22.6-155.6-16.3-179.3c-41.8-25.5,24.6-113.6-39.9-142.3
			c-42.1-18.7-109,1.7-100-48.3c12.5-69.3-133.4-87.1-240.9-68.4c-116.2,20.2-10.1,119.5-137.9,139.5c-65.7,10.3-53,98.3-46.9,116.5
			c5.3,15.8,40.6,41-8.4,75.6C36,454.9,135.1,509.9,136.8,510.9z"/>
		<g>
			<g>
				<path fill="#414099" d="M635.5,214.4c0,0-9.2,20-15.4,28.5c-6.2,8.5-12.1,16.5-17,40c-4.9,23.5-4.1,25.8-5.4,31.9
					c-1.4,6.1-10.1,30.6-10.2,35.1c-0.1,4.5-17.8,30.1-22.3,42.1c-4.5,12-12.6,29.1-12.1,37.8l2-0.5c0,0,1.6-20.3,15.6-40.9
					c14-20.6,12-24.4,27.9-35c15.9-10.6,26.2-39.7,26.2-39.7s16.2-31.7,15.4-48.2S643.7,234.2,635.5,214.4z"/>
				<path fill="#414099" d="M614,183.6c0,0-0.5,13.1-4.8,21c-4.2,7.8-7.9,12.6-8.7,21c-0.8,8.4-3.4,30.2-15.3,40.9
					c-11.8,10.6-13.3,42.5-22.3,52.1c-9,9.6-10.2,16.6-8.5,33.1c1.7,16.5,7.3,39.4-5.7,69.3l-3-7.4c0,0,9.3-24.6,7.1-39
					s-10.1-36.2-7.2-46.6c2.9-10.4-7.8-12.5-1.4-28.3c6.4-15.8,3.8-21.3,12.6-34.9c0,0,0.9-0.6,3.2-12.2
					c2.3-11.5,20.9-32.7,29.5-39.9C598,205.4,610.4,193.8,614,183.6z"/>
				<path fill="#4B4FA1" d="M579,248.7c0,0-10.3,17.6-10.4,28.9c-0.1,11.3,1.1,20.5-4.1,36c-5.2,15.5,5.1,25.3,2.1,33.8
					c-3,8.6-3.2,18.7-3.1,26.4c0.1,7.7-11.8,33.1-13.6,46c-1.8,12.9,0.5,12.9,0.5,12.9s2-17,4.7-22.6c2.7-5.6,11-25,13-32.5
					c1.9-7.5,7.2-12.3,11.7-25c4.5-12.7,11-23.4,10.5-41.4C589.8,293.2,597.1,274.2,579,248.7z"/>
				<path fill="#4B4FA1" d="M557.3,420.9c0,0,4.8-22.3,25-24.5c20.2-2.2,32,1.8,46.3-14.5c14.3-16.3,22.5-42.2,27.1-46.6
					c0,0-7.2-3.7-19.1,7.5c-11.9,11.1-20.3,19.6-27.2,26.1s-12.5,2.3-19.8,6.5c-6.1,3.6-14,13.9-17.5,19.4c-1.1,1.8-2.5,3.4-4,4.8
					c-1.4,1.3-3.1,2.9-4.1,4c-2.1,2.3-8.3,17.5-8.3,17.5L557.3,420.9z"/>
				<path fill="#414099" d="M550.2,416.9c0,0,7.1-27.3,2.3-40.6c-4.8-13.4-19.7-23.2-19.1-31.6c0.6-8.4,10.2-31.1,2.4-47.9
					c0,0-3,15.1-5.9,18.4c-2.9,3.3-23,16.9-19.5,34.7c3.6,17.8,23.1,22,27.9,27.3c4.8,5.3,11.3,5.2,11.3,8.7
					c0,3.5,1.3,16.2-0.8,28.7L550.2,416.9z"/>
				<path fill="#414099" d="M558,398.7l10-28.8c0,0,5.9-23.2,9.3-42.5c3.4-19.3,1.8-78.7,1.8-78.7s-10.3,17.6-10.4,28.9
					c-0.1,11.3,1.1,20.5-4.1,36c-5.2,15.5,5.1,25.3,2.1,33.8c-3,8.6-3.2,18.7-3.1,26.4s-11.8,33.1-13.6,46c-1,7-0.7,10.2-0.3,11.7
					C548.1,420.2,558,398.7,558,398.7z"/>
				<path fill="#414099" d="M607.2,381.5c-8.9,1.8-16.9,1.2-27.5,9.1c-10.6,7.9-16.8,16.3-16.8,16.3s-4.8,8.5-6.7,13
					c-0.3,0.7-0.4,1.1-0.4,1.1l1.6-0.1c0,0,4.8-22.3,25-24.5c20.2-2.2,32,1.8,46.3-14.5c14.3-16.3,22.5-42.2,27.1-46.6
					c0,0-15.2,11.8-24.5,22.2C621.8,367.9,616.1,379.7,607.2,381.5z"/>
				<path fill="#414099" d="M529.9,315.1c-2.9,3.3-23,16.9-19.5,34.7c3.6,17.8,23.1,22,27.9,27.3c4.8,5.3,11.3,5.2,11.3,8.7
					c0,3.5,1.3,16.2-0.8,28.7l0.6,1c1.1-4.9,2.5-12.3,3-18c0.8-9.2-0.7-13-3.7-20.4c-3-7.4-21.3-22.6-25.9-30.5
					c-4.6-8,8.9-21.3,11.8-27.7c3-6.4,1.1-22.2,1.1-22.2S532.9,311.8,529.9,315.1z"/>
			</g>
			<g>
				<path fill="#414099" d="M466.2,428.3l2.6-6.3c2-4.6,10.4-5.3,15.6-3l-2.5-1.2c13.2,5.8,19.8,19.9,14.7,31.6l-3.7,8.5
					c-1.6,3.7-0.7,8,2.1,11.2c2.5,2.9,3.2,6.7,1.8,9.9l-2,4.5c-2.1,4.9-6.7,8.3-12.3,9.5c-3.3,0.7-6.1,2.7-7.4,5.8l-2.8,6.4
					c-3.1,7.1-12,9.9-20,6.5l-4.6-2c-8-3.5-12-12-8.9-19.1l0,0c5.2-8.3,4.3-14.9,1.9-19.4c-3.5-6.7-4-14.1-1.2-20.6l0.4-0.9
					c3-6.8,9.3-11.6,17.1-13.3C460.5,435.6,464,433.4,466.2,428.3z"/>
				<g>
					<g>
						<path fill="#414099" d="M567.8,414.4c-18.4,28.7-31.8,60.6-39.4,94.4l-1.3-0.3c7.6-33.2,21-65,39.3-93.6
							c4.3-6.7,8.9-14.6,16.8-17.2c0.2-0.1,0.2,0.2,0.1,0.2C576,400.6,571.8,408.1,567.8,414.4z"/>
					</g>
					<g>
						<path fill="#414099" d="M532.8,510c20.5-27.9,45.5-53.7,75.2-76.2c0.3-0.2,0.7,0.3,0.4,0.5c-28.1,21.6-53,47.2-74,76.1
							L532.8,510z"/>
					</g>
					<path fill="#414099" d="M569.5,396.6c0.5,0.7,2.3,2.5,2.8,4.9c0.7,2.3,0.2,5.1,0.1,5c-0.1,0.1,2.1-1.8,2.8-4.8
						c0.9-2.9,0.3-6.9-0.9-8.2c-1.9-3-5.3-3.3-6-1.8C567.7,393,568.6,395,569.5,396.6z"/>
					<path fill="#414099" d="M573.9,422.2c-0.7-0.5-2.5-2.3-4.8-2.9c-2.2-0.8-5.1-0.3-5-0.2c-0.1,0.1,1.9-2.1,4.9-2.7
						c2.9-0.8,6.9-0.1,8.2,1c3,2,3.2,5.4,1.7,6C577.4,424.1,575.5,423.2,573.9,422.2z"/>
					<path fill="#414099" d="M567.3,433.4c-0.7-0.5-2.5-2.3-4.8-2.9c-2.2-0.8-5.1-0.3-5-0.2c-0.1,0.1,1.9-2.1,4.9-2.7
						c2.9-0.8,6.9-0.1,8.2,1c3,2,3.2,5.4,1.7,6C570.8,435.3,568.8,434.4,567.3,433.4z"/>
					<path fill="#414099" d="M590.9,459.4c-0.7-0.5-2.5-2.3-4.8-2.9c-2.2-0.8-5.1-0.3-5-0.2c-0.1,0.1,1.9-2.1,4.9-2.7
						c2.9-0.8,6.9-0.1,8.2,1c3,2,3.2,5.4,1.7,6C594.4,461.3,592.5,460.4,590.9,459.4z"/>
					<path fill="#414099" d="M603,448.8c-0.7-0.5-2.5-2.3-4.8-2.9c-2.2-0.8-5.1-0.3-5-0.2c-0.1,0.1,1.9-2.1,4.9-2.7
						c2.9-0.8,6.9-0.1,8.2,1c3,2,3.2,5.4,1.7,6C606.5,450.7,604.6,449.8,603,448.8z"/>
					<path fill="#414099" d="M560.2,409.3c0.6,0.6,2.7,2.1,3.6,4.4c1.1,2.1,1,5,0.9,4.9c-0.1,0.1,1.8-2.1,2-5.2c0.4-3-0.8-6.8-2.1-8
						c-2.4-2.6-5.8-2.4-6.2-0.9C557.9,406.1,559,407.8,560.2,409.3z"/>
					<path fill="#414099" d="M550.5,422c0.8,0.4,3.7,1.2,5.1,3.4c1.6,1.9,1.8,5.2,1.7,5.1c-0.2,0.1,2-3.2,1.9-6.7
						c0.2-3.5-1.9-7.3-3.7-8c-3.4-1.9-7.8-0.2-8.1,1.7C547,419.4,548.8,420.9,550.5,422z"/>
					<path fill="#414099" d="M540.2,441.3c0.9,0.3,3.8,0.6,5.6,2.5c1.9,1.6,2.7,4.8,2.6,4.7c-0.1,0.2,1.5-3.4,0.8-6.9
						c-0.4-3.5-3.1-6.8-5-7.2c-3.7-1.3-7.7,1.1-7.7,3C536.4,439.3,538.3,440.5,540.2,441.3z"/>
					<path fill="#414099" d="M570.6,454.7c0.6,0.4,2.9,1.2,4,3c1.2,1.6,1.2,4.3,1.1,4.3c-0.1,0.1,1.8-2.4,2-5.3
						c0.4-2.9-1.1-6-2.6-6.7c-2.7-1.8-6.3-0.6-6.7,0.9C567.9,452.4,569.3,453.7,570.6,454.7z"/>
					<path fill="#414099" d="M586.4,401.1c-0.4-0.3-1.4-1.5-2.7-1.9c-1.3-0.5-3-0.4-2.9-0.3c0,0.1,1.2-1.1,3-1.4
						c1.7-0.4,4.1,0.2,4.8,1c1.7,1.3,1.6,3.3,0.8,3.6C588.4,402.4,587.3,401.7,586.4,401.1z"/>
					<path fill="#414099" d="M582.7,392.9c0,0.5,0.4,2-0.1,3.3c-0.4,1.4-1.5,2.6-1.5,2.5c-0.1,0,1.6-0.3,2.9-1.5
						c1.4-1.2,2.3-3.4,2.2-4.4c0-2.1-1.6-3.3-2.4-2.8C582.9,390.5,582.7,391.8,582.7,392.9z"/>
					<path fill="#414099" d="M611.7,437.9c-0.4-0.3-1.4-1.5-2.7-1.9c-1.3-0.5-3-0.4-2.9-0.3c0,0.1,1.2-1.1,3-1.4
						c1.7-0.4,4.1,0.2,4.8,1c1.7,1.3,1.6,3.3,0.8,3.6C613.7,439.2,612.6,438.6,611.7,437.9z"/>
					<path fill="#414099" d="M607.3,429.7c0.1,0.5,0.5,1.9,0.1,3.3c-0.2,1.4-1.3,2.7-1.3,2.6c-0.1,0,1.6-0.4,2.8-1.8
						c1.3-1.3,2-3.5,1.8-4.5c-0.2-2.1-1.9-3.2-2.6-2.6C607.3,427.3,607.2,428.6,607.3,429.7z"/>
				</g>
				<g>
					<g>
						<path fill="#414099" d="M604.2,483.1c-18.8,2.1-36.2,10.3-53,18.4c-11.3,5.4-10.8,7-13.1,7.8c-0.4,0.1-0.7-0.3-0.6-0.6
							c0.9-1.8,3.2-3,4.8-4c1.9-1.2,3.9-2.2,5.9-3.2c4.3-2.1,8.7-3.9,13-5.8c8.9-3.9,17.9-7.5,27.3-9.9c5.1-1.3,10.4-2.3,15.7-2.8
							C604.3,482.9,604.3,483.1,604.2,483.1L604.2,483.1z"/>
					</g>
					<path fill="#414099" d="M587.3,477.3c0.1,0.8,0.9,3,0.4,5.2c-0.3,2.2-1.9,4.3-1.9,4.2c-0.1,0,2.5-0.7,4.2-2.9
						c1.9-2.1,2.9-5.7,2.5-7.2c-0.4-3.3-3.2-4.9-4.3-3.9C587.1,473.6,587.1,475.6,587.3,477.3z"/>
					<path fill="#414099" d="M570.8,483.2c0.1,0.8,0.9,3,0.4,5.2c-0.3,2.2-1.9,4.3-1.9,4.2c-0.1,0,2.5-0.7,4.2-2.9
						c1.9-2.1,2.9-5.7,2.5-7.2c-0.4-3.3-3.2-4.9-4.3-3.9C570.6,479.5,570.6,481.5,570.8,483.2z"/>
					<path fill="#414099" d="M554,490.7c0.1,0.8,0.9,3,0.4,5.2c-0.3,2.2-1.9,4.3-1.9,4.2c-0.1,0,2.5-0.7,4.2-2.9
						c1.9-2.1,2.9-5.7,2.5-7.2c-0.4-3.3-3.2-4.9-4.3-3.9C553.8,487,553.8,489,554,490.7z"/>
					<path fill="#414099" d="M592.2,492.7c-0.3-0.6-1-2.7-2.6-4.1c-1.4-1.4-3.8-2.1-3.8-2.1c-0.1,0.1,2.2-0.9,4.8-0.2
						c2.5,0.5,5.3,2.5,5.9,3.9c1.5,2.7,0.4,5.3-1,5.3C594.2,495.5,593,494,592.2,492.7z"/>
					<path fill="#414099" d="M575,498.8c-0.3-0.6-1-2.7-2.6-4.1c-1.4-1.4-3.8-2.1-3.8-2.1c-0.1,0.1,2.2-0.9,4.8-0.2
						c2.5,0.5,5.3,2.5,5.9,3.9c1.5,2.7,0.4,5.3-1,5.3C577,501.6,575.8,500.1,575,498.8z"/>
					<path fill="#414099" d="M605.3,486.4c-0.3-0.4-1-1.6-2.2-2.2c-1.1-0.7-2.7-0.8-2.6-0.8c-0.1,0.1,1.3-0.8,3-0.8
						c1.7,0,3.7,0.9,4.2,1.7c1.3,1.5,0.9,3.3,0.1,3.4C606.9,487.9,606,487.2,605.3,486.4z"/>
					<path fill="#414099" d="M603.3,478.4c-0.1,0.5,0,1.9-0.7,3c-0.6,1.2-1.8,2.1-1.8,2c-0.1,0,1.5,0,2.9-0.9
						c1.4-0.8,2.7-2.7,2.7-3.6c0.3-1.9-0.9-3.3-1.7-3C603.9,476.2,603.5,477.4,603.3,478.4z"/>
				</g>
			</g>
		</g>
		<g>
			<g>
				<path fill="#3C8F7C" d="M209,368.4c-22-19.7-33.4-47.9-39-68.1c-6.1-21.9-7-39.5-7-39.6l-1.2-0.1c0,0.2,0.9,17.8,7,39.9
					c5.7,20.4,17.1,48.9,39.4,68.8L209,368.4z"/>
			</g>
			<g>
				<path fill="#414099" d="M165.5,255.6c1.1,5.1,0.2,9.8-2.1,13.3c-3.6-2.7-6.5-7-7.6-12c-1.1-5.1-0.2-9.8,2.1-13.3
					C161.5,246.2,164.4,250.5,165.5,255.6z"/>
			</g>
			<g>
				<path fill="#414099" d="M158.7,270c3.8,3.5,6,8.2,6.4,12.6c-4.2,0.2-8.8-1.5-12.6-5c-3.8-3.5-6-8.2-6.4-12.6
					C150.3,264.7,154.9,266.4,158.7,270z"/>
			</g>
			<g>
				<path fill="#414099" d="M156.9,285.1c4.7,1.5,8.6,4.8,10.9,8.8c-3.4,2.2-8,2.8-12.7,1.4c-4.7-1.5-8.6-4.8-10.9-8.8
					C147.6,284.2,152.2,283.6,156.9,285.1z"/>
			</g>
			<g>
				<path fill="#414099" d="M164.2,303.3c3.7,1.2,6.7,4.2,8.4,8c-2.8,2.4-6.5,3.3-10.3,2.1c-3.7-1.2-6.7-4.2-8.4-8
					C156.7,303,160.5,302.1,164.2,303.3z"/>
			</g>
			<g>
				<path fill="#414099" d="M170.6,277.3c2.9-3,6.8-4.2,10.6-3.8c0.2,4-1.2,8-4.1,11c-2.9,3-6.8,4.2-10.6,3.8
					C166.3,284.3,167.6,280.3,170.6,277.3z"/>
			</g>
			<g>
				<path fill="#414099" d="M174,290.3c2.9-3,6.8-4.2,10.6-3.8c0.2,4-1.2,8-4.1,11c-2.9,3-6.8,4.2-10.6,3.8
					C169.7,297.3,171,293.3,174,290.3z"/>
			</g>
		</g>
		<g>
			<g>
				<path fill="#606BF1" d="M195.7,395c-20.4-3-37.8-15-48.8-24.6c-12-10.4-19.2-20.3-19.3-20.4l-0.7,0.4c0.1,0.1,7.4,10,19.4,20.5
					c11.1,9.7,28.7,21.9,49.3,24.9L195.7,395z"/>
			</g>
			<g>
				<path fill="#606BF1" d="M127.1,346.1c2.6,2.5,3.9,5.6,3.8,8.5c-3.1-0.2-6.4-1.6-9-4.1c-2.6-2.5-3.9-5.6-3.8-8.5
					C121.2,342.2,124.5,343.6,127.1,346.1z"/>
			</g>
			<g>
				<path fill="#606BF1" d="M128.7,357.1c3.6,0.6,6.6,2.4,8.6,4.9c-2.4,1.7-5.7,2.5-9.2,1.9c-3.6-0.6-6.6-2.4-8.6-4.9
					C121.8,357.3,125.1,356.5,128.7,357.1z"/>
			</g>
			<g>
				<path fill="#606BF1" d="M133.5,366.6c3.3-1,6.8-0.5,9.7,0.9c-1.1,2.6-3.6,4.7-6.9,5.7c-3.3,1-6.8,0.5-9.7-0.9
					C127.7,369.7,130.2,367.5,133.5,366.6z"/>
			</g>
			<g>
				<path fill="#606BF1" d="M144.7,374.4c2.6-0.7,5.5-0.1,8,1.4c-0.7,2.5-2.5,4.4-5.2,5.2c-2.6,0.7-5.5,0.1-8-1.4
					C140.2,377.1,142,375.1,144.7,374.4z"/>
			</g>
			<g>
				<path fill="#606BF1" d="M138.4,356.8c0.6-2.9,2.4-5.1,4.7-6.3c1.7,2.2,2.4,5.1,1.8,8c-0.6,2.9-2.4,5.1-4.7,6.3
					C138.6,362.6,137.8,359.7,138.4,356.8z"/>
			</g>
			<g>
				<path fill="#606BF1" d="M145.4,363.1c0.6-2.9,2.4-5.1,4.7-6.3c1.7,2.2,2.4,5.1,1.8,8c-0.6,2.9-2.4,5.1-4.7,6.3
					C145.6,368.8,144.8,365.9,145.4,363.1z"/>
			</g>
		</g>
		<g>
			<g>
				<path fill="#606BF1" d="M207.9,456c-23.5,8.9-49.3,4.2-66.9-1.3c-19-6-32.7-14.2-32.8-14.3l-0.5,1c0.1,0.1,13.9,8.4,33.1,14.4
					c17.7,5.6,43.8,10.3,67.6,1.3L207.9,456z"/>
			</g>
			<g>
				<path fill="#606BF1" d="M105.3,435.6c4.3,1.7,7.5,4.9,9.3,8.6c-3.4,1.8-7.8,2-12.1,0.4c-4.3-1.7-7.5-4.9-9.3-8.7
					C96.7,434.2,101.1,433.9,105.3,435.6z"/>
			</g>
			<g>
				<path fill="#606BF1" d="M113.7,448.8c4.2-1.5,8.5-1,12.1,0.9c-1.5,3.7-4.5,6.8-8.7,8.2c-4.2,1.5-8.5,1-12.1-0.9
					C106.4,453.3,109.5,450.3,113.7,448.8z"/>
			</g>
			<g>
				<path fill="#606BF1" d="M124.5,458.1c3-3.3,7-5,10.9-4.9c0.3,4.1-1,8.4-3.9,11.7c-3,3.3-7,5-10.9,4.9
					C120.2,465.7,121.5,461.4,124.5,458.1z"/>
			</g>
			<g>
				<path fill="#606BF1" d="M139.6,462.9c3-3.3,7-5,10.9-4.9c0.3,4.1-1,8.4-3.9,11.7c-3,3.3-7,5-10.9,4.9
					C135.3,470.5,136.6,466.2,139.6,462.9z"/>
			</g>
			<g>
				<path fill="#606BF1" d="M125.3,447.4c-2.6-3.4-3.8-7.5-3.5-11.2c3.4,0.4,6.9,2.4,9.5,5.8c2.6,3.4,3.8,7.5,3.5,11.2
					C131.4,452.8,127.9,450.8,125.3,447.4z"/>
			</g>
			<g>
				<path fill="#606BF1" d="M141,452.3c-2.6-3.3-3.9-7.4-3.7-11.1c3.4,0.3,6.9,2.3,9.6,5.6c2.6,3.3,3.9,7.4,3.7,11.1
					C147.2,457.6,143.7,455.6,141,452.3z"/>
			</g>
			<g>
				<path fill="#606BF1" d="M159.4,464.2c0.7-1.8,2.1-3,3.7-3.5c0.8,1.6,0.9,3.6,0.2,5.3c-0.7,1.8-2.1,3-3.7,3.5
					C158.9,467.9,158.7,465.9,159.4,464.2z"/>
			</g>
		</g>
		<path fill="#414099" d="M258.3,509.1c0,0,29.9-118.3,20-130.2c-13.7-16.4-25,38.1-26.1,33.4c-10.5-43.7-13.3-99.7-47.1-105.6
			c-19.2-3.4,4.4,41.6,3,53.8c-1.4,12.2-36.1-28.2-57.1-49.4c-21-21.2-31.9-7.8-18.6,18.8c12.9,25.7,54.4,53.8,45.9,57.2
			c-8.6,3.3-60.6-29.9-67-15.7c-7.8,17.4,70.3,41.1,62.9,45c-7.4,3.9-44.7-9-43.6,4.3c1,13.3,51.2,12.8,50.3,18.7
			c-1.4,9.5-34.6-12-36,1.1c-1.5,13.4,43.6,11,42.9,21.4c-0.4,6-10.1-3.1-11.6,5.3c-3.3,19,56.3,42.1,56.3,42.1L258.3,509.1z"/>
		<g>
			<path fill="#606BF1" d="M281.1,509.9c0,0-28.5-43.7-42.2-51.9c-14.6-8.8-3.5,17.5-3.5,17.5s-29.8-35.5-38.1-28.3
				c-8.3,7.2-0.8,15.6-0.8,15.6s-26.8-7.9-31.6,1.9c-7.4,15.1,36.7,27.6,36.7,27.6s-18.9-0.2-15.4,10
				C191.5,517.7,281.1,509.9,281.1,509.9z"/>
			<path fill="#7D8CF4" d="M165,464.6c4.8-9.8,31.6-1.9,31.6-1.9s-7.5-8.4,0.8-15.6c8.3-7.2,32.2,14.4,32.2,14.4s-2.5-17.8,15.5-2.1
				c12.8,11.2,36.2,50.4,36.2,50.4L165,464.6z"/>
		</g>
		<g>
			<g>
				<g>
					<path fill="#606BF1" d="M246.6,400.3l1.3-0.9c-23.2-35.1-30.3-76.8-32.1-105.6c-2-31.2,1.5-54.5,1.6-54.7l-1.6-0.5
						c0,0.2-3.6,23.6-1.6,55C216,322.7,223.2,364.8,246.6,400.3z"/>
				</g>
				<g>
					<path fill="#606BF1" d="M221.9,233.7c0.1,7.1-2.4,12.9-6.3,16.4c-4-5-6.5-11.9-6.6-18.9c-0.1-7.1,2.4-12.9,6.3-16.4
						C219.3,219.8,221.8,226.6,221.9,233.7z"/>
				</g>
				<g>
					<path fill="#606BF1" d="M209.3,249.5c4,6.2,5.6,13.2,4.9,19.2c-5.4-1.5-10.9-5.7-14.8-12c-4-6.2-5.6-13.2-4.9-19.2
						C199.9,239.1,205.4,243.3,209.3,249.5z"/>
				</g>
				<g>
					<path fill="#606BF1" d="M203,268.5c5.7,4,9.8,9.9,11.7,16.1c-5,1.4-11.1,0.3-16.8-3.7c-5.7-4-9.8-9.9-11.7-16.1
						C191.2,263.4,197.3,264.5,203,268.5z"/>
				</g>
				<g>
					<path fill="#606BF1" d="M210.4,301.5c2.5,1.5,4.4,3.9,5.3,6.4c-2,0.8-4.6,0.5-7.1-1c-2.5-1.5-4.4-3.9-5.3-6.4
						C205.4,299.8,207.9,300,210.4,301.5z"/>
				</g>
				<g>
					<path fill="#606BF1" d="M212.4,313.8c2.5,1.5,4.4,3.9,5.3,6.4c-2,0.8-4.6,0.5-7.1-1c-2.5-1.5-4.4-3.9-5.3-6.4
						C207.4,312,209.9,312.3,212.4,313.8z"/>
				</g>
				<g>
					<path fill="#606BF1" d="M222.6,264.2c4.6-2.6,9.9-2.6,14.7-0.4c-0.8,5.3-3.7,10-8.2,12.6c-4.6,2.6-9.9,2.6-14.7,0.4
						C215.2,271.5,218.1,266.8,222.6,264.2z"/>
				</g>
				<g>
					<path fill="#606BF1" d="M223.6,282.6c4.6-2.6,9.9-2.6,14.7-0.4c-0.8,5.3-3.7,10-8.2,12.6c-4.6,2.6-9.9,2.6-14.7,0.4
						C216.1,289.9,219,285.2,223.6,282.6z"/>
				</g>
				<g>
					<path fill="#606BF1" d="M222.7,309c3-1.7,6.5-1.7,9.6-0.3c-0.5,3.4-2.4,6.5-5.4,8.2c-3,1.7-6.5,1.7-9.6,0.3
						C217.8,313.8,219.7,310.7,222.7,309z"/>
				</g>
			</g>
		</g>
		<g>
			<path fill="#F7B691" d="M549.7,413.1c2.7,0.4,2.5,0.9,2.9,0.9c0.4,0.1,5.3-2.4,5.3-2.4s14.4-7.1,15.1-7.5l10.4-13.1l8,3.7
				c0,0-11.7,13.9-12.4,14.5c-0.7,0.6-21.4,7.8-23.1,8.5c0,0-1.8,1.7-3,2.7c-1.2,1-2.7,1.4-3.1,1.6c-0.1,0-1.3,0.7-3.2,1.1
				c-1.6,0.3-0.3-0.7-0.3-0.7s2.8-1.2,2.6-1.4c-0.1-0.2-1.6,0.6-3.3,1c-0.4,0.1-0.9,0.2-1.3,0.3c-1.1,0.2-1.5-0.4-0.5-0.8
				c0.4-0.1,1-0.4,1.5-0.5c0.5-0.1,0.9-0.4,1.4-0.5c0.8-0.3,1.4-0.5,1.4-0.6c0,0,0.1-0.2-0.4-0.1c-0.6,0.1-1.7,0.6-2.6,0.7
				c-0.5,0.1-1.5,0.2-1.5,0.2s-1.8,0.2-1.8-0.1c0-0.5,1.1-0.9,1.7-0.8c0.4-0.2,1.5-0.4,1.5-0.4s2.1-0.8,1.9-1.1
				c0-0.1-1.3,0.1-2.6,0.2c-1.4,0.1-2.4,0.1-2.5-0.2c-0.1-0.4,1-0.6,1-0.6s1-0.1,1.3-0.2c0.4-0.1,1.5-0.4,1.5-0.4s3.8-1.4,3.7-1.7
				c-0.1-0.3-0.8-0.9-1-0.9c-0.3,0-0.7,0.3-1,0.3c-0.3,0-0.8-0.1-0.9-0.4c0-0.3,1.4-1,1.4-1S548.9,413,549.7,413.1z"/>
			<path fill="#FE4400" d="M576.2,399.2c0,0,2.6,2.4,3.7,3.1c0.9,0.6,5.3,2.7,5.3,2.7s4.3-6.6,6.2-10c2.3-4,3.9-10.1,3.4-10.2
				c-1.5-0.5-3.6-0.7-5.6,0.2C582.4,388.1,576.2,399.2,576.2,399.2z"/>
			<path fill="#FE875E" d="M552.2,416.6c-1.2,0.2-2.3,0-2.8-1.1C549.3,416.8,551.2,417.4,552.2,416.6z"/>
		</g>
		<path fill="#303033" d="M230.4,370c0.2-3.9-0.4-7.7-2.1-11.3c-1.5-3.1-5.2-4.9-8.5-4.9c-10.6,0-12,14.1-18.7,19.5
			c-2.1,1.7-4.4,3-6.3,4.8c-7.2,6.6-4,18.9,2.7,24.7c4.6,4,11.8,6.3,17.5,3.2c3-1.6,5.2-4.4,6.8-7.4c2.3-4.2,3.7-9.1,5.4-13.7
			C228.8,380.2,230.2,375.1,230.4,370z"/>
		<path fill="#FE4400" d="M232.2,388.7c-3.3-10.1-7.7-9.9-7.7-9.9l3.5,21.4c2.1-0.6,4.7-1.8,6.8-2.4
			C234.1,394.7,233,391.2,232.2,388.7z"/>
		<path fill="#F48C7F" d="M249,423.1l-12.1-9.3c0,0-1.2-8.6-2.9-16.3c-2,0.6-3.9,2.2-5.9,2.7l3.1,17.2l15.9,8.2l4.5,5.8l1-5.9
			L249,423.1z"/>
		<path fill="#EF653C" d="M359.6,408.6c3.8,0,7.3,1,10.4,2.7c0.4,0.2,0.8,0.4,1.3,0.6c9.3,3.8,19.5-3.3,19.5-13.3V349h-49.6
			c-10.1,0-17.2-10.2-13.3-19.5c0.2-0.4,0.4-0.9,0.6-1.3c1.7-3.1,2.7-6.6,2.7-10.4c0-11.9-10-21.6-22-21c-10.9,0.5-19.7,9.5-20,20.4
			c-0.1,3.9,0.8,7.5,2.6,10.7c0.2,0.4,0.4,0.8,0.6,1.3c3.8,9.5-3.4,19.8-13.6,19.8h-49.2v113c0,26.7,21.6,48.3,48.3,48.3h113v-49.4
			c0-10.1-10.2-17.3-19.6-13.5c-0.4,0.2-0.9,0.4-1.3,0.6c-3.3,1.9-7.3,2.9-11.4,2.6c-10.7-0.6-19.4-9.3-19.9-20
			C338,418.6,347.6,408.6,359.6,408.6z"/>
		<path fill="#FF5B00" d="M467.1,381.1c0.2-3.8,1.3-7.3,3.2-10.2c0.2-0.4,0.5-0.8,0.7-1.2c4.3-9.1-2.3-19.7-12.4-20.1l-49.5-2.3
			l-2.3,49.5c-0.5,10.1-11,16.7-20.1,12.4c-0.4-0.2-0.8-0.4-1.2-0.7c-3-1.9-6.5-3-10.2-3.2c-11.9-0.6-22,8.9-22,21
			c0,10.9,8.5,20.1,19.4,21c3.9,0.3,7.6-0.5,10.8-2.1c0.4-0.2,0.8-0.4,1.3-0.5c9.6-3.4,19.6,4.3,19.1,14.5l-2.3,49.1l112.9,5.3
			c26.6,1.2,49.2-19.3,50.5-46l5.3-112.9l-49.4-2.3c-10.1-0.5-17.7,9.4-14.4,19c0.2,0.5,0.3,0.9,0.5,1.3c1.7,3.4,2.5,7.4,2.1,11.5
			c-1.1,10.7-10.2,18.9-20.9,18.9C476,403.1,466.5,393.1,467.1,381.1z"/>
		<path fill="#FF5B00" d="M329,303.1c0.2,3.8-0.6,7.3-2.2,10.5c-0.2,0.4-0.4,0.8-0.5,1.3c-3.4,9.5,4.2,19.3,14.3,18.8l49.5-2.5
			l-2.5-49.5c-0.5-10.1,9.3-17.7,18.8-14.3c0.5,0.2,0.9,0.3,1.3,0.5c3.1,1.6,6.7,2.4,10.5,2.2c11.9-0.6,21-11,19.9-23.1
			c-1.1-10.9-10.5-19.2-21.4-19c-3.9,0.1-7.5,1.2-10.6,3.1c-0.4,0.2-0.8,0.5-1.2,0.7c-9.3,4.3-19.9-2.4-20.4-12.6l-2.5-49.1
			l-112.9,5.7c-26.6,1.3-47.1,24-45.8,50.6l5.7,112.9l49.4-2.5c10.1-0.5,16.7-11.1,12.5-20.3c-0.2-0.4-0.4-0.8-0.7-1.2
			c-2-3.2-3.2-7.1-3.2-11.3c0-10.7,8.3-19.8,19-20.8C318,282.1,328.4,291.2,329,303.1z"/>
		<path fill="#FE4400" d="M430.4,275.8c-3.8,0-7.3-1-10.4-2.7c-0.4-0.2-0.8-0.4-1.3-0.6c-9.3-3.8-19.5,3.3-19.5,13.3v49.6h49.6
			c10.1,0,17.2,10.2,13.3,19.5c-0.2,0.4-0.4,0.9-0.6,1.3c-1.7,3.1-2.7,6.6-2.7,10.4c0,11.9,10,21.6,22,21c10.9-0.5,19.7-9.5,20-20.4
			c0.1-3.9-0.8-7.5-2.6-10.7c-0.2-0.4-0.4-0.8-0.6-1.3c-3.8-9.5,3.4-19.8,13.6-19.8h49.2v-113c0-26.7-21.6-48.3-48.3-48.3h-113v49.4
			c0,10.1,10.2,17.3,19.6,13.5c0.4-0.2,0.9-0.4,1.3-0.6c3.3-1.9,7.3-2.9,11.4-2.6c10.7,0.6,19.4,9.3,19.9,20
			C452,265.8,442.4,275.8,430.4,275.8z"/>
		<path fill="#F7B691" d="M197.2,494.6c0,0-0.7,5.2-2,6.9c-0.4,0.6-1.2,1.3-1.7,2.3c-0.8,1.6-0.4,3.9,0.2,5.2c0.3,0.7,0,0.7,0.7,0.9
			c2.1,0.6,4.3-0.4,5.1-2.4c0.5-1.1,0.9-2.6,1-4.4c0.2-4.7,1.7-7.1,1.7-7.1L197.2,494.6z"/>
		<path fill="#F7B691" d="M219.8,497c0,0,0.5,5.9,0.1,7.8c-0.2,1-1.3,3.1-0.8,4.1c0.5,1,1.1,1.2,1.1,1.2l13.3,0.2
			c0.7,0,0.2-0.5-0.3-0.9c-1-0.7-1.7-1.2-4.8-2.7c-0.2-0.1-0.9-0.6-1.2-0.7c-0.7-0.4-1.3-1-1.9-1.7c-1-1.1-1-6.2-1-6.2L219.8,497z"
			/>
		<path fill="#444447" d="M230.1,419c0,0,1.7,9.5,0.6,15.8c-1.1,6.2-6.4,64.2-6.4,64.2l-5.9,0.3c0,0-1.2-24.2-1-27.6
			c0.2-3.4,2-9,2-9l-0.6-19.5l7.4-25.7L230.1,419z"/>
		<path fill="#303033" d="M212.9,416.9c0,0-4.6,7-5.7,12.7c-1.1,5.8,0.8,23.5-1.3,31.1c-1.1,4.1-5.5,10.4-6.1,15.7
			c-0.7,5.3-3.2,19.1-3.2,19.1l5.9,1.2l13.6-34.6l10.7-31.3l2.7-16.1L212.9,416.9z"/>
		<path fill="#FE4400" d="M216.6,377.3c0,0-6.1-0.4-8.5,2.3c-2.4,2.6,5.4,23.6,5.8,26.9c0.4,3.4-2.2,12.3-2.2,12.3
			s14.4,2.9,18.5,0.2c0,0,0.4-24.2,0-26.6c-0.4-2.4-4.1-12.2-5-13.1C224.3,378.3,216.6,377.3,216.6,377.3z"/>
		<path fill="#F7B691" d="M218.7,369.1c0,0,0,0.2-0.1,0.5c-0.3,1.5-1.3,6.4-2,7.7c-0.9,1.6,2.9,6.8,6.6,6.2c1.1-0.2-0.9-4.8-0.8-5.2
			c0.2-0.9,0.4-2.2,0.7-3.5c0.1-0.7,0.3-1.5,0.4-2.2c0.4-2,0.7-3.6,0.7-3.6L218.7,369.1z"/>
		<path fill="#DB9F77" d="M218.6,369.6c0.1-0.3,0.1-0.5,0.1-0.5l5.5-0.1c0,0-0.3,1.6-0.7,3.6c-0.1,0.7-0.3,1.4-0.4,2.2
			c-0.8-0.1-1.7-0.5-2.6-1.3c-1-0.8-1.6-1.9-2-2.9C218.5,370.1,218.6,369.8,218.6,369.6z"/>
		<path fill="#F7B691" d="M222.4,356.6c0,0-2.6-0.3-4.2,1.8c-1.6,2.1-3.4,8.6,0.7,12.1c4,3.5,8-0.5,8.6-4.7
			C228,361.6,228.2,356.5,222.4,356.6z"/>
		<path fill="#F7B691" d="M228.6,365.8c-0.5,0.9-1.3,1.5-1.8,1.2c-0.5-0.3-0.5-1.3-0.1-2.2c0.5-0.9,1.3-1.5,1.8-1.2
			C229,363.8,229.1,364.8,228.6,365.8z"/>
		<path fill="#303033" d="M222.7,355.9c0,0-3.4,6.2-5.9,6.4c-2.5,0.3-2.8,3.6-2.8,3.6s0.9-7.5,3.3-9
			C219.7,355.5,222.7,355.9,222.7,355.9z"/>
		<path fill="#F47458" d="M199.9,506.5c-3.2,0.6-5.3-1.3-6.4-2.7c-0.8,1.6-1.2,4-0.6,5.3c0.5,1.2,2.1,1.1,3.3,1.2
			c1.3,0,2.3-0.7,2.9-1.8C199.3,507.9,199.6,507.3,199.9,506.5z"/>
		<path fill="#F47458" d="M227.1,506c-3.5,0.9-6.1,0.3-7.6-0.3c-0.4,1.1-0.9,2.4-0.6,3.2c0.3,0.9,0.8,1.2,1.2,1.2
			c3.2,0.1,11.8,0.2,14.2,0.2c0.3,0,0.5-0.4,0.3-0.7C234.1,508.9,227.4,506.2,227.1,506z"/>
		<path fill="#F7B691" d="M217.4,363.9c0.2,1.1-0.2,2.1-0.9,2.2c-0.7,0.1-1.4-0.6-1.6-1.7c-0.2-1.1,0.2-2.1,0.9-2.2
			C216.5,362.1,217.2,362.8,217.4,363.9z"/>
		<path fill="#FFFFFF" d="M221.4,367.7l3.1,0.1c0,0-0.1,1.2-1.5,1.2C221.4,369,221.4,367.7,221.4,367.7z"/>
		<g>
			<path fill="#DD513A" d="M486.6,119.7c0.4,0,1.4,0.4,3,3.3c2,3.7,4.9,15.1,4.9,15.1l-8.6,3.2l-1.1-2.4l-1.8-18.2
				C482.9,120.7,486.5,119.7,486.6,119.7z"/>
			<path fill="#F47458" d="M475.2,118.1c2.5,0,8.6,0.7,11.4,1.6c0,0,2.1,17.9-1.9,31.6c-0.9,3,0.7,12.6,0.7,12.6l-25.6-0.3
				c0,0,3-23.2,1.9-26.9c-1.1-3.7-1.2-16.8-1.2-16.8s0.2,0,5.8-1C469,118.4,472.6,118.1,475.2,118.1z"/>
			<path fill="#F7B691" d="M472.2,197.2c0,0,0.6,6.5,1.6,8.4c1,1.8-0.1,4.9-0.1,5.3c-0.1,0.4-2.2,1-5.6,0.7
				c-3.4-0.4-3.3-1.1-3.1-2.4c0.3-1.3,2.1-2.9,2.2-4.1c0.1-1.2-1-5.6-1-5.6L472.2,197.2z"/>
			<path fill="#414099" d="M482.6,158.5c0,0,17.7-1,21.6,1.4c3.9,2.4-2.8,14.1-2.8,14.1s-12.3-0.6-36.4,0.8
				c-5.7,0.3-6.2-14.9-5.1-16.1C461,157.5,482.6,158.5,482.6,158.5z"/>
			<path d="M467.7,212c-3.5-0.4-3.1-2.1-2.8-3.4c0.2-0.8,1.2-1.8,1.8-2.7c0.3,0.2,0.8,0.7,2.3,1.1c1.6,0.5,3.7-0.5,5.1-1
				c0.5,1.8,0.5,4.2,0.5,4.5C474.6,211,471.2,212.4,467.7,212z"/>
			<path fill="#4B4FA1" d="M469.6,171.1c0.7,5.3,4.2,32,4.2,32l-8.1,1c0,0-10-34.7-9.5-40.1c0.5-5.3,4.2-5.8,4.2-5.8
				S467.8,157,469.6,171.1z"/>
			<path fill="#F7B691" d="M460.3,121.8c2.4-0.9,3.6,20.7,3.9,29.6c4.2,0.4,11.6,0,13.5-0.1c0.9-0.1,2.9-0.8,3.7-0.9
				c0.9-0.1,1.7-0.2,2.1-0.1c0.2,0,4.6,1.8,5,2.2c0.5,0.5,1.7,1.7,1.5,2.3c-0.2,0.5-2.4-1.5-2.4-1.5l-1.1-0.6
				c1.4,1.3,3.9,3.1,3.6,3.7c-0.4,0.6-2.7-1.1-4.4-2.4c1.4,1.3,3.2,3.6,2.8,3.9c-0.4,0.3-2.4-2.3-4.5-3.1c-0.8-0.3-1.6,0.5-2.2,0.6
				c-0.5,0.1-1.2,0.2-1.6,0.1l-2.3-0.7c-0.8,0.1-0.8,0.5-1.6,0.7c-0.9,0.2-2.5,0.4-3.6,0.7c-6.8,1.7-9.1,2.4-11.2,2.4
				C455,158.7,454.7,123.9,460.3,121.8z"/>
			<path fill="#DD513A" d="M455.8,142.1c-0.4-9.1-0.4-20.3,4.7-22.2c2-0.8,5.6,3.8,4.9,22.4C462.7,142.5,458.7,142.7,455.8,142.1z"
				/>
			<path fill="#F7B691" d="M496,202.8c0,0-0.7,2.3,0.6,3.8c1.3,1.5,6.5,3,7.2,3.8c0.7,0.8,0.6,1.5,0.6,1.5l-14.8-0.4l0.2-4.5
				l0.7-3.2L496,202.8z"/>
			<path d="M497.4,207.3c0,0-3.8,1.5-5.6,0.6c-1.8-0.9-1.8-1.2-2.3-0.8c-0.5,0.3-0.7,4.5-0.7,4.5l16.6,0.5c1.2,0,1.7-0.9,0.8-1.6
				c-0.6-0.5-1.4-0.8-1.8-1.1C503.1,208.7,497.4,207.3,497.4,207.3z"/>
			<path fill="#4B4FA1" d="M495.4,162.7c1.1-2.4,3.7-5.5,8.3-3.7c4.4,1.8,5.5,6.2,4.2,10.8c-1.4,4.5-10.4,31.2-10.8,34.8l-7.2,0
				c0,0,1.3-21.1,1.6-26.2C491.8,173.6,493.4,166.8,495.4,162.7z"/>
			<path d="M507.2,138.2H483c-0.6,0-1.2,0.4-1.5,1l-7.4,18.2h-13.3c-0.4,0-0.7,0.3-0.7,0.7l0,0c0,0.4,0.3,0.7,0.7,0.7h38
				c1,0,2-0.6,2.4-1.6l7.5-16.8C509.1,139.3,508.3,138.2,507.2,138.2z"/>
			<path fill="#FFFFFF" d="M494.1,148.8c-0.2,0.8-0.9,1.4-1.6,1.2c-0.7-0.1-1.2-0.9-1-1.7c0.2-0.8,0.9-1.4,1.6-1.2
				C493.8,147.2,494.3,148,494.1,148.8z"/>
			<g>
				<path fill="#303033" d="M481,96.2c-0.7-0.2-1.4-0.5-2.1-0.9c-0.8-0.4-1.8-0.8-2.4-0.9c-1.3-0.2-3.7-0.1-5,1.3
					c-1.6,1.7-4.4,0.3-3.9,9.4c0.6,10.3,6.4,9.1,6.5,9c0.1-0.2,5.1-6.6,5.1-6.6s1.7,3.8,1.7,3.6C480.9,111,489.7,99.1,481,96.2z"/>
				<path fill="#F7B691" d="M476.6,114.8l0.5,3.7c0,0,1.1,5.3-0.3,6.3c-1.4,1-6-6.5-6-6.5l0.5-9.3L476.6,114.8z"/>
				<path fill="#DB9F77" d="M471.1,112c1.2,3.2,4,5.1,5.9,5.9l-0.4-3.1l-5.4-5.8L471.1,112z"/>
				<path fill="#F7B691" d="M476.3,98.9c3-0.5,5.7,1.9,5.6,4.9c0,1.3-0.1,2.9-0.4,4.7c-0.7,4.2-3.5,8-5.5,7.6c-1.9-0.3-6.7-4-5.9-10
					C470.8,102.5,473.2,99.4,476.3,98.9z"/>
				<path fill="#F7B691" d="M471.6,106.9c-0.2,0.9-0.9,1.6-1.7,1.4c-0.8-0.1-1.2-1-1.1-1.9c0.2-0.9,0.9-1.6,1.7-1.4
					C471.2,105.1,471.7,106,471.6,106.9z"/>
				<path fill="#303033" d="M470.5,105c0,0,2.3,0.6,3.2-0.9c0.9-1.5,3.9-4.7,7.8-3.4c3.9,1.3-3.4-3.2-3.7-3.2c-0.3,0-4.1,0-4.1,0
					s-2.9,2.4-3,2.6c-0.1,0.3-0.9,3.1-0.9,3.1L470.5,105z"/>
			</g>
			<path fill="#FFFFFF" d="M474.7,111.2l4.2,0.8c0,0-0.4,1.6-2.3,1.3C474.4,112.9,474.7,111.2,474.7,111.2z"/>
		</g>
		<g>
			<path fill="#F7B691" d="M403.6,403.7c0.2,0.6,0.3,0.7,0.5,1.1c1.3,2.4,4.4,5.8,4.4,5.8l2.4-5.3c0,0-0.4-1.7-1.1-4.1
				C407.5,401.8,405.3,402.1,403.6,403.7z"/>
			<path fill="#303033" d="M417.2,399c0,0-13.2,5.7-13.6,5.6c-0.3-0.1-5.4-8.7-5.5-16.7c0-3.7,3.9-8.2,8.2-7.3
				c2.2,0.4,2.1,1.1,5.4,5.7C414.9,391,417.2,399,417.2,399z"/>
			<path fill="#F7B691" d="M428.5,500.9c0,0-0.3,5.2-0.3,5.2c-0.1,0.7-0.6,2.3-0.6,2.9c0,2.2,10.7-1.9,8.3-2.9
				c-0.2-0.1-1.3-0.8-1.4-1.5c-0.1-1.2-0.4-3.6-0.4-3.6L428.5,500.9z"/>
			<path fill="#414099" d="M435.8,506c0,0-2.5,0.7-3.8,0.9c-1.3,0.2-3-1.3-3.9-0.9c-1,0.4-1,4.3-1,4.3s13.4,1.1,17.2,0
				C445.9,509.8,440.9,507.6,435.8,506z"/>
			<path fill="#F7B691" d="M406.6,500.9c0,0-0.3,5.2-0.3,5.2c-0.1,0.7-0.6,2.3-0.6,2.9c0,2.2,10.7-1.9,8.3-2.9
				c-0.2-0.1-1.7-1.3-1.8-2c-0.1-1.2-0.1-3.1-0.1-3.1L406.6,500.9z"/>
			<path fill="#414099" d="M414,506c0,0-2.5,0.7-3.8,0.9c-1.3,0.2-3-1.3-3.9-0.9c-1,0.4-1,4.3-1,4.3s13.5,1.3,17.3,0
				C424.1,509.7,419.1,507.6,414,506z"/>
			<g>
				<path fill="#F7B691" d="M409.9,406.5l9.4-13.2c0-0.1,0.1-0.4,0.3-0.7c0.5-1.3,1.5-4,2.3-6.7l0,0c0.3-0.9,0.8-2.6,1.4-4.2
					c0.6-1.8,1.4-4,1.4-4.3c0-0.1-0.1-0.2-0.1-0.3c-0.3-0.9-0.8-3-1-3.9c-0.1-0.6-0.2-2,0.5-2c1.1,0,0.6,1.4,1.1,2.3
					c0.2-0.6,0.6-1.8,0.8-3l0.2-2.8c0-0.2-0.2-1.8,0.6-1.8l0,0c0.7,0.1,0.7,1.7,1,4.5c0.1-0.3,0.2-0.7,0.3-1.1c0-0.2,0.1-1,0.2-1.5
					c-0.1-0.8-0.1-2,0.8-1.9c0.4,0.1,0.4,1.8,0.4,1.8c0,0.2,0,2,0,2.4c0.1-0.6,0.4-3.2,1.1-3.2c0.5,0,0.6,0.7,0.6,1.2
					c0,0.3-0.3,3.1-0.4,3.4c0.3-0.4,0.6-2.9,0.8-2.9c1,0,0.7,3.5,0.3,4.4c0,0.1-0.1,0.3-0.1,0.5c-0.1,0.6-0.3,1.7-0.9,2.6
					c-0.7,1.1-1.6,2.9-1.7,3.2c-0.1,0.6-0.4,2.6-0.8,5.1c-0.2,1.1-0.4,2.3-0.5,3.5l0,0c0,0.3-0.2,1.1-1,4.3c-1,4.3-1.1,4.5-1.2,4.6
					c-0.4,0.8-10.6,14.5-11,15.1l-0.3,0.3L409.9,406.5z"/>
				<path fill="#DB9F77" d="M427.4,375.9c0,0-0.8-1.9-2.1-2c0,0,0.8-0.3,1.4,0.2C427.3,374.7,427.4,375.9,427.4,375.9z"/>
			</g>
			<g>
				<path fill="#F7B691" d="M407.6,372.1l-1.2,7.6c0,0,4.6,3.7,7.3,2.9c2.3-0.7,0.7-3.6,0.7-3.6s-1.2-4.1-0.8-6.2
					C414,370.7,407.6,372.1,407.6,372.1z"/>
				<path fill="#DB9F77" d="M408.5,374.4c1.2,0.5,3.4,1.3,5.2,1.5c-0.2-1.1-0.3-2.2-0.1-3c0.2-1-1.1-1.2-2.5-1.2
					c-1.8,0.2-3.5,0.4-3.5,0.4l-0.2,1.5C407.7,373.9,408.1,374.2,408.5,374.4z"/>
				<path fill="#F7B691" d="M401.8,363.3c-0.2,0,1.8,8.5,4.9,10c3.1,1.5,7.8,0.7,8.6-1.6c1-2.5-2.6-11.3-6.9-12.4
					C404.1,358.2,401.8,363.3,401.8,363.3z"/>
				<path fill="#303033" d="M405.4,355.4c-2.5,1.4-3.6,3.6-4,4.4c-1.2,0.6-2.6,1.8-3.3,5c-0.8,4,2.1,7,5.3,7.9c3.1,0.9,3.6,3,3.6,3
					l0.4-2.2c0,0-0.7-1.9-1.7-2.9c-1.1-1,0.5-2.4,0.6-3.6c0.1-0.9-0.6-2.6-0.4-4.1c0,0,1.7-2.6,3.5-3.3
					C412.3,358.6,408.6,353.6,405.4,355.4z"/>
				<path fill="#F7B691" d="M406.7,368.5c0.4,1,0.2,2-0.4,2.2c-0.6,0.2-1.4-0.4-1.8-1.4c-0.4-1-0.2-2,0.4-2.2
					C405.5,366.9,406.3,367.6,406.7,368.5z"/>
			</g>
			<path fill="#F7B691" d="M418.3,406.8l18.1-3c0,0-2.1-5.2-2.8-5.2c-0.7,0-13.7,5.7-13.7,5.7l-1,2.1L418.3,406.8z"/>
			<path fill="#D3D3D3" d="M409.1,419.2c0,0-1.8,8.7-1.1,15.4c0.7,6.6,0.8,30.2,0.8,30.2l-2.8,37.7l6.7,0.1c0,0,7.9-37.6,7.8-36.7
				c-0.1,1,2.7-26.5,2.7-26.5l-9.4-21L409.1,419.2z"/>
			<path fill="#FFFFFF" d="M410.8,418.8c0,0-1.2,7.9,0.3,11.3c1.5,3.5,12.6,37.3,12.8,40.1c0.1,2.8,3.9,33.3,3.9,33.3l7.8-0.2
				l1.7-33.9l-3.5-42.6l-3.4-10.8L410.8,418.8z"/>
			<path fill="#F7B691" d="M406.4,379.7c0,0,1.9,1.3,3.7,1.1c1.8-0.1,4.3-1.8,4.3-1.8l-0.4-1.2c0,0-4.6-0.7-4.7-0.6
				C409.2,377.3,406.4,379.7,406.4,379.7z"/>
			<path fill="#F7B691" d="M426.8,398.4c0,0,6.9,6.5,9.9,5.4c3.1-1.1,4.4-4.9-3.2-10.4C426.8,388.4,426.8,398.4,426.8,398.4z"/>
			<path fill="#3A3A3D" d="M431.4,406.3c-1-5.5-8.4-22.8-9-25.9c-0.3-1.5-4.3-1.6-8.1-1.4c-4,0.2-8,0.7-8,0.7s-3.5,0.6-5.1,2
				c-1.6,1.5-2,5.5,0.3,13.2c1.8,6.1,4,9.4,5,13.8c0.2,1.5,0.4,2.9,0.7,4.6c0.4,6.6,0,15.3,0,15.3s19.3,4,26.5-2.1
				C433.8,426.6,432.5,412,431.4,406.3z"/>
			<path fill="#303033" d="M436.4,394.4c0,0-7.6,6.2-8,6.2c-0.3,0-10.8-7.7-13.2-14.1c-1.3-3.5,1.5-7.4,4.7-7.4
				c2.2,0,3.2,0.6,7.6,4.3S436.4,394.4,436.4,394.4z"/>
		</g>
		<path fill="#303033" d="M303.2,115.4c1.2-3,2.5-6,5.7-7.5c2.6-1.2,5.3-0.8,7.6,1c6.6,4.9,0.8,10.4,8.3,19.7
			c2.3,2.9,5.1,5.3,6.5,8.7c1.9,4.8-0.4,7.1-4.1,9.3c-17.8,10.9-27.1-11.5-26.8-16.6C300.8,126.2,302.4,117.4,303.2,115.4z"/>
		<path fill="#F7B691" d="M284.7,173.6c0.7-0.1,2.6-1.4,3.2-1.5c0.5-0.1,1.6-0.3,2-0.3c0.6-2.1,3.4-13.5,3.7-16.9
			c0.3-3.6,2.9-19.4,2.9-19.4l6.7,1.2c0,0-2.8,12.1-3.5,18c-0.7,5-6.2,16.4-6.9,17.6c0,0,0,0.1,0,0.1c-0.1,1.8-1,1.2-1,1.2l-1.4,0.4
			c0,0-4.9,0.5-5.2,0.6C285,174.5,284,173.7,284.7,173.6z"/>
		<path fill="#FE4400" d="M302.4,126.3c-4.7,1.6-7.4,14.4-7.4,14.4s7.4,2.1,9.3,1c0,0,2.1-9.5,2.9-9.2L302.4,126.3z"/>
		<path fill="#F7B691" d="M266.1,195.7c-1.4,3.8-2.2,7.5-2.3,7.9c0,0.2,0.3,1.2,0.2,1.5c-2.9,3.9-7,4.8-10.6,5.1
			c1.8-1.8,4.5-3.4,4.6-4c0.2-0.9,1.3-4.9,1.8-10.4C262.1,196.7,263.6,195.9,266.1,195.7z"/>
		<path fill="#414099" d="M307,153.2l6.4,17.9c0,0-10.2,1.9-14,2.6c-3.8,0.7-25.2,1.6-25.7,2c-0.4,0.3-4.8,14.5-6.8,22.4
			c-2.2,0.5-6.1-0.1-8.1-0.8c1.1-11.2,5.1-29.1,6.3-31C267.2,163.2,307,153.2,307,153.2z"/>
		<path fill="#F7B691" d="M282.2,203.5c-0.7,4-0.8,7.7-0.7,8.2c0,0.2,0.5,1.2,0.5,1.4c-2.1,4.4-6,6-9.5,7c1.4-2.1,3.8-4.2,3.8-4.8
			c0-0.9,0.4-5-0.1-10.5C278.5,205.3,279.8,204.2,282.2,203.5z"/>
		<path fill="#4B4FA1" d="M314.4,154.1l2.5,4.2c3.8,6.4,0.9,14.7-6,17.3c0,0-0.1,0-0.1,0c-3.6,1.4-24.4,6.3-24.9,6.8
			c-0.3,0.4-2,15.2-2.5,23.3c-2.1,0.9-6,1-8.1,0.7c-1-11.3-0.5-29.5,0.4-31.6C277.2,171.4,314.4,154.1,314.4,154.1z"/>
		<path fill="#13375B" d="M281.1,211.8c0.6-0.6,2.6,2.8,3.1,3.5c0.6,0.8,0.4,1.4,0.3,1.5c-0.2,0.3-10.9,6.6-13.5,7.1
			c-0.2,0-0.7-0.1-0.8-0.2c-1-0.9,3.7-7.6,5.8-8.5C277.4,214.7,278.6,214.6,281.1,211.8z"/>
		<path fill="#13375B" d="M263.5,203.7c0.7-0.5,2,3.2,2.4,4c0.4,0.9,0.1,1.5,0,1.6c-0.2,0.3-11.9,4.5-14.6,4.4
			c-0.3,0-0.6-0.2-0.7-0.4c-0.8-1.1,5-6.8,7.3-7.2C259.3,205.8,260.5,205.9,263.5,203.7z"/>
		<path fill="#EF653C" d="M306.9,126.2L306.9,126.2L306.9,126.2c-0.1,0-0.3,0-0.5-0.1c-0.9-0.2-2.8-0.4-4.3,0.2
			c-1.8,0.8-4.6,7.9-4.4,15.2c0.1,1.1,0.1,2.1,0.2,2.8c0.5,5.5,2,15.9,2.1,15.9c2.2,1.4,15.2-4,16.1-5.2c0.9-1.2,1.4-15.5,1.9-16.3
			l0.9-12.5C317.3,126,309.2,126.2,306.9,126.2z"/>
		<path fill="#F7B691" d="M312.2,121.6c0,0-0.8,4.3-0.7,6c0.2,1.7-0.6,7.2-4.3,7.2c-3.6,0-0.7-7-0.3-8.7c0.3-1.7,0.4-6.9,0.4-6.9
			L312.2,121.6z"/>
		<path fill="#DB9F77" d="M307.2,122c0.1-1.4,0.1-2.6,0.1-2.6l4.9,2.3c0,0-0.2,0.9-0.3,2C309.7,124.1,308.2,123.3,307.2,122z"/>
		<path fill="#F7B691" d="M313.9,109.7c0,0,1.9,1,2.6,3.3s-0.1,8-4.9,9.4c-4.8,1.4-6.9-3.2-5.9-6.8
			C306.6,112,308.8,107.5,313.9,109.7z"/>
		<path fill="#F7B691" d="M305,114.2c0.1,1,0.6,1.7,1.2,1.6c0.6-0.1,0.9-0.9,0.8-1.8c-0.1-1-0.6-1.7-1.2-1.6
			C305.3,112.5,304.9,113.3,305,114.2z"/>
		<path fill="#303033" d="M313.4,109.4c0,0,0.9,6.5,3,7.6c2.1,1.2,1.2,4,1.2,4s1.9-6.7,0.2-8.8C316.1,110.1,313.4,109.4,313.4,109.4
			z"/>
		<path fill="#F7B691" d="M315.1,118c-0.6,0.8-0.6,1.8,0,2.2c0.6,0.4,1.5,0,2.1-0.8c0.6-0.8,0.6-1.8,0-2.2
			C316.6,116.7,315.7,117.1,315.1,118z"/>
		<path fill="#FFFFFF" d="M308.1,118.3l3.4,0.9c0,0-0.4,1.3-1.9,1C307.7,119.7,308.1,118.3,308.1,118.3z"/>
		<path fill="#50BFA5" d="M325,173c0.2,0,14.7-0.7,14.7-0.7s-6,4.3-6.1,4.3s-4.8-1.8-5-1.8C328.3,174.8,325,173,325,173z"/>
		<path fill="#F7B691" d="M618.7,501.1c0,0,0.3,5.1,0.3,5.1c0.1,0.6,0.5,2.2,0.5,2.8c0,2.2-9.8-1.9-7.6-2.9c0.2-0.1,1.2-0.8,1.3-1.5
			c0.1-1.2,0.4-3.5,0.4-3.5L618.7,501.1z"/>
		<path fill="#F7CC7F" d="M611.8,506.2c0,0,2.3,0.7,3.5,0.8c1.2,0.2,2.7-1.3,3.6-0.9c0.9,0.4,0.9,4.2,0.9,4.2s-12.3,1.1-15.8,0
			C602.5,509.9,607.1,507.8,611.8,506.2z"/>
		<path fill="#F7B691" d="M635,500.8c0,0,0.3,5.1,0.3,5.1c0.1,0.6,0.5,2.2,0.5,2.8c0,2.2-9.8-1.9-7.6-2.9c0.2-0.1,1.5-1.3,1.6-2
			c0.1-1.2,0-3,0-3L635,500.8z"/>
		<path fill="#F7CC7F" d="M628.2,505.9c0,0,2.3,0.7,3.5,0.8c1.2,0.2,2.7-1.3,3.6-0.9c0.9,0.4,1,4.2,1,4.2s-12.2,0.5-15.9,0
			C618.9,509.8,623.5,507.4,628.2,505.9z"/>
		<path fill="#303033" d="M632.1,420c0,0,1.7,8.6,1,15.1c-0.7,6.5-0.7,29.6-0.7,29.6l3.1,37l-6.7,0.2c0,0-7.3-37-7.1-36
			c0.1,0.9-2.4-26-2.4-26l8.7-20.6L632.1,420z"/>
		<path fill="#444447" d="M629.7,414.5c0,0,7.5,7.9,4.7,16.6c-1.1,3.5-11.6,36.7-11.7,39.4c-0.1,2.7-3.5,32.7-3.5,32.7l-7.1-0.2
			l-1.5-33.3l2-44.9l4.3-7.6L629.7,414.5z"/>
		<path fill="#3A3A3D" d="M584.1,388.7c2.5-2.7,7.8-6.7,7.8-6.7s3.2-2.7,4.5-3.2c1.9-0.7,5.2-2.4,9.9,4.8
			c3.4,5.1,24.8,31.8,28.3,32.7l-23,11c-0.6-5.2-12-15.2-13.6-17C594.5,406.1,581.8,391.3,584.1,388.7z"/>
		<path fill="#F7B691" d="M585.2,377.5l7.2,4.2c0,0,0.2,6.1-2.1,7.7c-2,1.3-3.5-1.9-3.5-1.9s-2.7-3.7-4.7-4.8
			C580,381.6,585.2,377.5,585.2,377.5z"/>
		<path fill="#DB9F77" d="M586.4,380.2c-0.3,1.3-0.9,3.1-1.9,4.6c-0.8-0.9-1.7-1.7-2.5-2.1c-0.9-0.5-0.3-1.7,0.6-2.8
			c1.3-1.3,2.5-2.4,2.5-2.4l1.4,0.8C586.6,378.9,586.5,379.8,586.4,380.2z"/>
		<path fill="#F7B691" d="M581.5,367c0.1-0.1,6,7.2,5.3,10.6c-0.7,3.4-4.3,6.6-6.7,5.7c-2.7-1-7.8-9.6-6-13.8
			C575.8,365.4,581.5,367,581.5,367z"/>
		<path fill="#303033" d="M575,364.7c2.6-1.4,6.7-1.8,9.9-0.2c3.8,2,4.7,7.1,3.5,10.2c-1.2,3.1,0.2,4.8,0.2,4.8l-2-1.2
			c0,0-1.2-1.9-1.3-3.3c-0.2-1.5-2.3-1.2-3.4-1.9c-0.8-0.5-1.8-2.2-3.2-3.1c0,0-3.3-0.4-4.9,0.5C571,372.1,571.3,366.8,575,364.7z"
			/>
		<path fill="#303033" d="M583.5,374.3c0,1.1,0.5,2,1.2,2c0.7,0,1.2-0.9,1.2-2c0-1.1-0.5-2-1.2-2C584,372.3,583.5,373.2,583.5,374.3
			z"/>
		<path fill="#F7B691" d="M569.6,426.5c0.8-1.1,1.1-2.8,2.2-4c0.4-0.4,0.9-0.9,1.6-1.4c5.2-3,18.7-10.9,19.2-11.5
			c0.6-0.7,9.8-16,9.8-16l-8.3-1.9l-8.1,14.3c-0.7,0.5-13.5,10-13.5,10s-2.6,2-4,2.9c-0.7,0.4-1.4,0.7-2,0.9c-0.8,0.3-2.2,1-2.5,1.2
			c-0.3,0.3-1,0.9-1.4,1.3c-0.4,0.4-0.9,0.8-1.1,1.1c-0.1,0.1-0.5,0.3-0.7,0.5c-0.4,0.2-0.3,0.8,0.1,0.9c0.4,0.1,0.9-0.1,1.3-0.3
			c0.9-0.4,2.1-1.6,2.1-1.5c0.1,0.1-1.1,2.7-1.2,3c-0.1,0.3-1.4,3.2-1.5,3.9c-0.1,0.7,0.3,0.8,0.6,0.6c0.3-0.2,2.4-4.1,2.4-4.1
			s0.3-0.5,0.4-0.2c0.1,0.3-1.8,3.9-2,4.4c-0.2,0.6,0,1.1,0.5,0.9c0.7-0.3,2.5-4.2,2.5-4.2s0.2-0.5,0.4-0.3c0.2,0.2-1.5,3.2-1.5,3.5
			c0,0.3,0.3,0.7,0.8,0.4c0.5-0.3,2.1-3.9,2.1-3.9s0.2-0.2,0.3-0.1c0.1,0.2-1.2,2.8-1.1,3.2c0.1,0.3,0.4,0.3,0.4,0.3
			C568,430.4,568.9,427.6,569.6,426.5z"/>
		<path fill="#FE4400" d="M600.2,401.6c0,0-2.7-0.9-4.4-1.7c-1.2-0.5-6.2-3-6.2-3s2.2-9.2,3.7-12.5c5.4-12.1,11.5-3.8,12.4-1.8
			C607.5,387,600.2,401.6,600.2,401.6z"/>
		<path fill="#FFFFFF" d="M411.9,369.9l2.6-1.9c0,0,0.7,1-0.4,1.9C412.7,370.9,411.9,369.9,411.9,369.9z"/>
		<path fill="#184655" d="M674.5,510.1H116.8c-0.7,0-1.3,0.8-1.3,1.7l0,0c0,1,0.6,1.7,1.3,1.7h557.6c0.7,0,1.3-0.8,1.3-1.7l0,0
			C675.7,510.9,675.2,510.1,674.5,510.1z"/>
		<path fill="#F7B691" d="M340,172.3c-0.1-0.2-0.2-0.2-0.3-0.2c-1.3,0-2.7-0.1-4-0.3c-0.2,0-0.4-0.1-0.6-0.2c-0.4-0.1-0.7-0.1-1.1,0
			c-0.2,0.1-0.4,0.1-0.6,0.1c-0.7,0-2.6-0.7-3.6-0.8c-0.2,0-0.4-0.2-0.5-0.4c-1-3.9-3.1-12.5-3.3-15.4c-0.3-3.6-2.9-20.1-2.9-20.1
			l-6.7,1.9c0,0,2.8,12.1,3.5,18c0.6,4.5,5.1,14.2,6.5,16.9c0.7,2.1,2.3,2.1,2.6,2.2c0.2,0,0.4,0.1,0.5,0.3c0.2,0.3,0.5,0.5,0.8,0.7
			c0.2,0.2,0.4,0.3,0.6,0.6c0.3,0.4,0.5,0.9,0.8,1.3c0.2,0.3,0.3,0.4,0.6,0.3c0.3-0.1,0.4-0.3,0.4-0.6c0-0.5-0.2-0.9-0.4-1.3
			c-0.2-0.4-0.2-0.6,0.1-1c0.2-0.2,0.3-0.4,0.5-0.6c0.2-0.2,0.4-0.3,0.7-0.3c0.5,0.1,1,0.2,1.5,0.3l0.4,0.1c0,0,0.2,0,0.2,0
			c0,0,0.8,0.1,1,0.1c0.2,0,0.5,0,0.8,0c0.2,0,0.8-0.1,0.8-0.1c0.2,0,0.5-0.1,0.6-0.3c0.1-0.1,0.1-0.1,0.1-0.3
			c0-0.1-0.1-0.1-0.2-0.2c-0.2,0-1-0.1-1-0.2c0.2,0,1,0,1.3,0c0.3,0,0.6-0.1,0.9-0.4C339.9,172.5,340,172.4,340,172.3z"/>
		<path fill="#FE4400" d="M318.9,126.4c3.3-0.6,6.1,14.3,6.1,14.3s-7.4,2.1-9.3,1c0,0-2.1-9.5-2.9-9.2L318.9,126.4z"/>
		<path fill="#F7B691" d="M238.6,393.5c0.2-0.6-2.8-1.1-3-1.8c-0.2-0.6,3.9-0.7,4-1.2c0.3-1-4.4-0.2-4.3-0.7
			c0.1-0.5,4.9-1.6,4.4-2.4c-0.5-0.8-4.8,1.6-5,1.1c-0.1-0.6,4.2-1.9,4.2-3.2c0-0.7-7.2,3.3-8,2.9c-0.8-0.4,0.9-3.4,0.2-3.9
			s-2.5,6.3-3,6.5c-0.5,0.2-10.1,5.7-13.5,6.6c-0.4-1.1-1.3-2.7-1.7-3.8c-1.9,1.4-3.3,2.1-5.3,3.3c1.4,3.6,3.5,7.5,4.5,8
			c3,1.4,14.8-8.4,17.2-10.1c2.4-1.7,3.7-1.1,5.3-1.7C236.1,392.7,238.4,394.2,238.6,393.5z"/>
		<path fill="#FE4400" d="M207.1,398.7c0,0-2.6-11.6-2.2-15c0.5-3.4,4.5-6.5,7.3-5.4c2.8,1.2,4,17.4,4,17.4L207.1,398.7z"/>
	</g>
	<path fill="#303033" d="M410.1,365.7c0.2,0.3,0.2,0.6,0,0.7c-0.2,0.1-0.5,0-0.6-0.3c-0.2-0.3-0.2-0.6,0-0.7
		C409.6,365.2,409.9,365.4,410.1,365.7z"/>
	<path fill="#303033" d="M413.6,363.8c0.2,0.3,0.2,0.6,0,0.7c-0.2,0.1-0.5,0-0.6-0.3c-0.2-0.3-0.2-0.6,0-0.7
		C413.1,363.4,413.4,363.5,413.6,363.8z"/>
	<path id="Caminho_12425_4_" fill="#DB9F77" d="M413.1,367.7L413.1,367.7c-0.1,0.1-0.2,0-0.2,0c0-0.1,0-0.1,0.1-0.2
		c0.3-0.1,0.5-0.3,0.5-0.4c0.1-0.2-0.2-0.3-0.4-0.4c-0.1,0-0.2-0.1-0.2-0.1c-0.3-0.2-0.7-1-0.7-1.1c0-0.1,0.1-0.2,0.1-0.2
		c0.1,0,0.1,0,0.2,0c0,0,0.3,0.8,0.6,1c0.1,0,0.1,0.1,0.2,0.1c0.3,0.2,0.6,0.3,0.5,0.6C413.7,367.3,413.5,367.5,413.1,367.7z"/>
	<path fill="none" stroke="#303033" stroke-width="0.2465" stroke-linecap="round" stroke-miterlimit="10" d="M408.6,364.9
		c0,0,0.5-0.8,1-0.6"/>
	<path fill="none" stroke="#303033" stroke-width="0.2465" stroke-linecap="round" stroke-miterlimit="10" d="M412.1,363.1
		c0,0,0.5-0.8,1-0.6"/>
</g>
<ellipse fill="#303033" cx="221" cy="362.6" rx="0.4" ry="0.6"/>
<ellipse fill="#303033" cx="225" cy="362.8" rx="0.4" ry="0.6"/>
<path id="Caminho_12425" fill="#DB9F77" d="M222.8,365.9L222.8,365.9c-0.1,0-0.2-0.1-0.2-0.1c0-0.1,0.1-0.1,0.2-0.1
	c0.3,0,0.6,0,0.6,0c0.1-0.1,0-0.4-0.2-0.6c0-0.1-0.1-0.2-0.1-0.2c-0.2-0.4,0-1.2,0-1.3c0-0.1,0.1-0.1,0.2-0.1c0.1,0,0.1,0.1,0.1,0.1
	c0,0-0.1,0.8,0,1.2c0,0.1,0.1,0.1,0.1,0.2c0.2,0.3,0.3,0.6,0.1,0.8C223.6,365.9,223.3,365.9,222.8,365.9z"/>
<path fill="none" stroke="#303033" stroke-width="0.2465" stroke-linecap="round" stroke-miterlimit="10" d="M220.5,361.2
	c0,0,0.9-0.4,1.2,0.1"/>
<path fill="none" stroke="#303033" stroke-width="0.2465" stroke-linecap="round" stroke-miterlimit="10" d="M224.4,361.4
	c0,0,0.9-0.4,1.2,0.1"/>
<path fill="#303033" d="M312.4,115c-0.1,0.3-0.1,0.6,0.1,0.7s0.4-0.1,0.6-0.4c0.1-0.3,0.1-0.6-0.1-0.7
	C312.8,114.5,312.5,114.7,312.4,115z"/>
<path fill="#303033" d="M308.7,113.7c-0.1,0.3-0.1,0.6,0.1,0.7c0.2,0.1,0.4-0.1,0.6-0.4c0.1-0.3,0.1-0.6-0.1-0.7
	C309.1,113.2,308.8,113.4,308.7,113.7z"/>
<path id="Caminho_12425_1_" fill="#DB9F77" d="M309,117.1c-0.1-0.3,0.2-0.5,0.4-0.7c0.1-0.1,0.1-0.1,0.2-0.1
	c0.3-0.3,0.5-1.1,0.5-1.1c0,0,0.1-0.1,0.1-0.1c0.1,0,0.2,0.1,0.2,0.2c0,0-0.2,0.9-0.5,1.2c0,0-0.1,0.1-0.2,0.2
	c-0.2,0.1-0.4,0.3-0.4,0.5c0,0.1,0.3,0.2,0.6,0.3c0.1,0,0.1,0.1,0.1,0.2c0,0.1-0.1,0.1-0.2,0.1l-0.1,0
	C309.4,117.4,309.1,117.3,309,117.1z"/>
<path fill="none" stroke="#303033" stroke-width="0.2465" stroke-linecap="round" stroke-miterlimit="10" d="M313.8,114.1
	c0,0-0.7-0.7-1.1-0.4"/>
<path fill="none" stroke="#303033" stroke-width="0.2465" stroke-linecap="round" stroke-miterlimit="10" d="M310.1,112.8
	c0,0-0.7-0.7-1.1-0.4"/>
<path fill="#303033" d="M476.1,106.2c0,0.3-0.2,0.6-0.4,0.6c-0.2,0-0.3-0.3-0.3-0.7c0-0.3,0.2-0.6,0.4-0.6S476.1,105.8,476.1,106.2z
	"/>
<path fill="#303033" d="M480,106.8c0,0.3-0.2,0.6-0.4,0.6c-0.2,0-0.3-0.3-0.3-0.7c0-0.3,0.2-0.6,0.4-0.6
	C479.9,106.2,480,106.5,480,106.8z"/>
<path id="Caminho_12425_2_" fill="#DB9F77" d="M477.2,109.6L477.2,109.6c-0.1,0-0.2-0.1-0.2-0.2c0-0.1,0.1-0.1,0.2-0.1
	c0.3,0.1,0.6,0.1,0.6,0c0.1-0.1,0-0.4-0.1-0.6c0-0.1-0.1-0.2-0.1-0.2c-0.1-0.4,0.1-1.2,0.1-1.3c0-0.1,0.1-0.1,0.2-0.1
	c0.1,0,0.1,0.1,0.1,0.1c0,0-0.2,0.8-0.1,1.2c0,0.1,0.1,0.1,0.1,0.2c0.1,0.3,0.3,0.6,0,0.8C477.9,109.7,477.6,109.7,477.2,109.6z"/>
<path fill="none" stroke="#303033" stroke-width="0.2465" stroke-linecap="round" stroke-miterlimit="10" d="M475.3,104.7
	c0,0,0.9-0.3,1.1,0.2"/>
<path fill="none" stroke="#303033" stroke-width="0.2465" stroke-linecap="round" stroke-miterlimit="10" d="M479.2,105.3
	c0,0,0.9-0.3,1.1,0.2"/>
<path fill="#303033" d="M579.2,374.5c0,0.1,0.2,0.1,0.4,0c0.2-0.1,0.3-0.2,0.3-0.3s-0.2-0.1-0.4,0S579.2,374.4,579.2,374.5z"/>
<path fill="#303033" d="M575.6,376.2c0,0.1,0.2,0.1,0.4,0c0.2-0.1,0.3-0.2,0.3-0.3c0-0.1-0.2-0.1-0.4,0
	C575.7,376,575.6,376.1,575.6,376.2z"/>
<path id="Caminho_12425_3_" fill="#DB9F77" d="M578.1,377.9c-0.3-0.1-0.3-0.5-0.2-0.8c0-0.1,0-0.2,0-0.2c0-0.4-0.4-1.1-0.4-1.1
	c0-0.1,0-0.1,0.1-0.2c0.1-0.1,0.2-0.1,0.2,0c0,0,0.5,0.8,0.5,1.2c0,0.1,0,0.2,0,0.2c0,0.2-0.1,0.6,0.1,0.6c0.1,0,0.3,0,0.6-0.2
	c0.1,0,0.2,0,0.2,0c0,0.1,0,0.1-0.1,0.2l0,0C578.5,377.9,578.3,378,578.1,377.9z"/>
<path fill="none" stroke="#303033" stroke-width="0.2465" stroke-linecap="round" stroke-miterlimit="10" d="M579.3,372.4
	c0,0-1-0.1-1,0.5"/>
<path fill="none" stroke="#303033" stroke-width="0.2465" stroke-linecap="round" stroke-miterlimit="10" d="M575.8,374.1
	c0,0-1-0.1-1,0.5"/>
<path fill="none" stroke="#DB9F77" stroke-width="0.2465" stroke-linecap="round" stroke-miterlimit="10" d="M578.3,380
	c0,0,1.7,0.7,3-1.2"/>
</svg>
