<svg xmlns="http://www.w3.org/2000/svg" data-name="Layer 1" viewBox="0 0 517 516"><g data-name="running late"><path fill="#010101" d="M74.52,136.41a.57.57,0,0,0-.58-.43,4.48,4.48,0,0,0-.94.19c-1.38.36-2.77.71-4.15,1.08a.61.61,0,0,1-.79-.34c-.22-.4-.42-.81-.65-1.2a27.48,27.48,0,0,0-6.06-7.34,19.49,19.49,0,0,0-11.09-4.78,18.13,18.13,0,0,0-3.21.09c0-.51.35-.64.61-.82a19.41,19.41,0,0,0,5.09-5.59,28.07,28.07,0,0,0,3.07-7.14,36.29,36.29,0,0,0,1.08-5.94.93.93,0,0,1,.8-.93l.76-.16c2.35-.51,4.69-1,7-1.54.47-.1.92-.2.93-.79s-.39-.66-1.21-.48q-5.14,1.09-10.28,2.22L25.43,109,13.26,111.7c-.15.49-.25,1,.37,1.23,2.1-.45,4.2-.88,6.29-1.37a.86.86,0,0,1,1.1.51,32.4,32.4,0,0,0,2.67,4.3,24.78,24.78,0,0,0,7.89,7.15,16.42,16.42,0,0,0,8.22,2.1c.25,0,.59-.25.77.11-.12.41-.48.5-.73.67a21.68,21.68,0,0,0-6.4,6.74,28.94,28.94,0,0,0-3.78,9.76c-.27,1.4-.45,2.83-.62,4.25a1,1,0,0,1-.95,1c-1.39.32-2.77.72-4.15,1.09-.56.16-1.13.3-1.68.48a.66.66,0,0,0-.49.89.64.64,0,0,0,.79.39c.56-.14,1.13-.29,1.69-.45,4.64-1.24,9.29-2.47,13.93-3.72L73,137.52a8.09,8.09,0,0,0,1.28-.45A.51.51,0,0,0,74.52,136.41ZM31.45,121.93a23.54,23.54,0,0,1-5.16-4.43,28.66,28.66,0,0,1-3.76-5.44,1.07,1.07,0,0,1-.19-1l32.85-7.21a.84.84,0,0,1,.3.81,28.81,28.81,0,0,1-4,12.12,3.5,3.5,0,0,1-2.4,1.73C44,119.66,38.79,121,33.63,122.24A2.58,2.58,0,0,1,31.45,121.93Zm4.1,1.86c-.3-.39.05-.51.28-.67l11.78-2.86c.41-.18.81-.32.79.39a15.59,15.59,0,0,1-4.25,2.73A13,13,0,0,1,35.55,123.79Zm1.89,6.34a16.56,16.56,0,0,1,8.78-5h0c5.21-.94,9.7.66,13.77,3.8a1,1,0,0,1-.82.57q-12.18,3-24.38,6c-.12,0-.25,0-.38.05-.44.15-.57-.08-.59-.46A20.16,20.16,0,0,1,37.44,130.13Zm-6.78,17.32c-.38-.38-.23-.85-.18-1.27a36,36,0,0,1,1.77-7.58,2.06,2.06,0,0,1,1.67-1.42l7.57-1.85c6.31-1.55,12.62-3.09,18.92-4.68a1.68,1.68,0,0,1,1.9.49,28.65,28.65,0,0,1,4.33,6,2,2,0,0,1,.13.55C65.39,138.31,34.07,146.77,30.66,147.45Z"/><path d="M248.34,435.17a7.94,7.94,0,0,0-.86-.46,39.79,39.79,0,0,1-5.53-3.27c-1.8-1.21-3.06-3-4.64-4.44-1.29-1.18-2.4-2.56-3.61-3.83a44.28,44.28,0,0,1-7.51-10.42q-2.67-5.31-4.93-10.81c-.27-.66-.41-1.38-.71-2a1.24,1.24,0,0,1,.39-1.55c.29-.27.55-.55.82-.84a74,74,0,0,0,6-7.44A18.22,18.22,0,0,0,229,387.9a3.63,3.63,0,0,0,.24-2.85,11.07,11.07,0,0,0-4.58-5.89A1.75,1.75,0,0,0,223,379c-.29.11-.55.47-.87.24s-.34-.52-.53-.78a49.32,49.32,0,0,1-4.28-7.2c-4-8-7.9-16-11.88-23.93-2.58-5.18-5.21-10.34-8.24-15.27-1.67-2.72-3.39-5.4-5-8.13q-9.67-15.92-19.07-32l-1.73-3a31.86,31.86,0,0,0,3.42-3.23c.73-.83,1.49-1.63,2.22-2.46a2.15,2.15,0,0,1,1.52-.77c.85-.07,1.69-.14,2.52-.27a162.94,162.94,0,0,0,18.71-3.86,1.51,1.51,0,0,1,1.85.52,4.11,4.11,0,0,0,4.77,1.25c.61-.2,1.21-.47,1.82-.69a3.72,3.72,0,0,0,2-1.72c.46-.79.9-1.58,1.29-2.41a1.36,1.36,0,0,1,1-.78,12,12,0,0,1,4.26-.14,33.31,33.31,0,0,0,6.23.35,27.26,27.26,0,0,0,7.75-1.86,3.57,3.57,0,0,1,1.43-.48c.26.2.21.47.21.71-.06,2.41-.11,4.82-.18,7.22q-.37,13.19-.77,26.35a3.38,3.38,0,0,0,0,.78.76.76,0,0,0,.8.7c.39,0,.78,0,1.17,0,1.43-.1,2.85-.21,4.28-.3l8.38-.47c.26,0,.52,0,.78-.07a.93.93,0,0,0,.89-.88c.06-.65.07-1.3.08-1.95l.42-50.58c0-.45,0-.91,0-1.37,0-.78-.26-1-1.08-1.07-.46,0-.91,0-1.37-.05l-8.79-.16c-.39,0-.78,0-1.17-.05a.47.47,0,0,1-.43-.53l0-1.17c.24-5.53.52-11.05.69-16.58a264.45,264.45,0,0,0-.73-29.66,42.48,42.48,0,0,0-2.56-11.38,2.11,2.11,0,0,0-1.43-1.45,22.33,22.33,0,0,0-4-1c-2.13-.26-4.26-.5-6.39-.79a52.44,52.44,0,0,0-11.88-.07c-.9.08-1.81.1-2.72.12a.57.57,0,0,1-.61-.61c0-.32,0-.65,0-1a17.67,17.67,0,0,0-1.69-5.77,2.59,2.59,0,0,0-2.46-1.61c-4-.06-7.93-.44-11.91-.31-7.41.22-14.83.3-22.22,1.09-2,.21-4,.27-6,.56-2.5.36-2.69.76-2.45,3.2a37.28,37.28,0,0,0,1.56,7.23c.12.37.23.74.32,1.12s.4.69.14,1.08a1.4,1.4,0,0,1-.34.18c-.38.11-.76.2-1.14.28a120.63,120.63,0,0,0-18,5,6,6,0,0,1-2.29.38,81.21,81.21,0,0,0-9.73.61c-2.39.29-4.77.7-7.16,1-3.56.38-7.06,1.12-10.56,1.84-2.22.46-1.84.71-3.07-1.25-.21-.33-.41-.66-.6-1-1.67-3.1-3.17-6.27-4.61-9.47a2.24,2.24,0,0,1-.19-.55c0-.18-.07-.45,0-.55.71-.71.83-1.8,1.48-2.48a32.17,32.17,0,0,0,2.16-2.72,8.9,8.9,0,0,1,4,2.37,10.13,10.13,0,0,0,2.35,1.73,28.93,28.93,0,0,0,11,3.8,15.28,15.28,0,0,0,9.45-1.69,24.89,24.89,0,0,0,6.75-5.22c.91-1,1.79-2.07,2.68-3.11a45.87,45.87,0,0,1,4.75-4.91,19.24,19.24,0,0,1,5.59-3.49,13.11,13.11,0,0,1,8.4-.7,1.27,1.27,0,0,0,.57.06.74.74,0,0,0,.47-.28.68.68,0,0,0,0-.54,2,2,0,0,0-.48-.6,14.64,14.64,0,0,0-7.59-3.73,17.18,17.18,0,0,0-6.19.37,27.7,27.7,0,0,0-7.33,3.11c-1,.54-1.86,1.46-3.16,1.31a.35.35,0,0,0-.27.23c-.08.68-.68.73-1.12.92a16.26,16.26,0,0,1-5.5,1.21,17.82,17.82,0,0,1-6.52-1c-1.48-.49-2.94-1-4.42-1.52a14,14,0,0,0-9.74.1c-.28.11-.58.16-.85.24a1.33,1.33,0,0,1,0-1.05,10.44,10.44,0,0,0,0-3.3,32.27,32.27,0,0,0-1.51-6.05,6.45,6.45,0,0,0-2.74-3.45c-.38-.24-.76-.5-1.16-.71-3-1.63-6.19-3-9.36-4.36a12.72,12.72,0,0,0-8.6-.49,22.89,22.89,0,0,0-14.32,11.26,14.3,14.3,0,0,0-1.55,9.08,4.53,4.53,0,0,0,.76,2.38,1.92,1.92,0,0,1,.3,1.11,62.73,62.73,0,0,1,.2,8.78c-.06.77-.07,1.56-.07,2.34a25.35,25.35,0,0,0,2,9.69,7.31,7.31,0,0,0,4.88,4.43,13.22,13.22,0,0,0,4.25.21c1.31-.28,1.31-.28,1.39.7a5.73,5.73,0,0,1-3.51,5.2c-1.58.76-3.11,1.62-4.7,2.35q-4.24,2-8.54,3.83a106.21,106.21,0,0,1-12.74,4.82A43.68,43.68,0,0,0,43.39,226a9.26,9.26,0,0,0-.94.71A5.8,5.8,0,0,0,40,232.08a1,1,0,0,1-.15.73c-1.15,1.55-1.55,3.41-2.19,5.18a3.86,3.86,0,0,0,.81,4.15,9.68,9.68,0,0,0,2.66,2.28,21.15,21.15,0,0,0,2.62,1.28,31.37,31.37,0,0,0,18.4,1.35c5-1.1,9.87-2.34,14.8-3.51a14,14,0,0,1,6.38-.2,2.27,2.27,0,0,1,1.64,1.2,61.47,61.47,0,0,0,3.5,5.63c3.09,4.52,6.4,8.87,9.81,13.14,4,5.1,8.44,9.91,12.73,14.8,1,1.12,2,2.23,2.88,3.31a2.85,2.85,0,0,1-1.15,1.18,96.62,96.62,0,0,0-9,7.8c-.61.59-1.24,1.15-1.89,1.7-3.28,2.78-6.58,5.52-9.83,8.33a45.16,45.16,0,0,0-3.83,3.62,11.6,11.6,0,0,0-2.84,11.21,22.52,22.52,0,0,0,3.95,8.2c1.4,1.87,2.85,3.73,4.16,5.66,3.06,4.53,6,9.12,9.08,13.65,2.62,3.87,5,7.92,8.16,11.42a16.72,16.72,0,0,1,1.27,1.73c.22.31.62.58.54,1s-.36.53-.57.77a1,1,0,0,0-.08,1.26A14.62,14.62,0,0,0,116,363a3.31,3.31,0,0,0,3.18.27c.47-.21.94-.43,1.4-.67a.57.57,0,0,1,.84.15c.3.43.58.87.86,1.31,1.54,2.48,3.11,5,4.61,7.47,1.17,1.95,2.32,3.91,3.36,5.94a31.33,31.33,0,0,1,3.11,19.88,21.16,21.16,0,0,1-1.23,4.91c-.67,1.57-.62,3.31-1.32,4.86a6.68,6.68,0,0,0,0,5.68,5.5,5.5,0,0,0,1.32,1.91,2.57,2.57,0,0,0,3.21.5,7.7,7.7,0,0,0,2.21-1.58,15.36,15.36,0,0,0,2.68-3.34c3.88-6.79,7.59-13.65,8.76-21.54a3.85,3.85,0,0,1,1.22-2.37,7.73,7.73,0,0,0,1.25-1.49,2.45,2.45,0,0,0,0-2.92c-.37-.54-.74-1.08-1.15-1.58a69.57,69.57,0,0,0-6.76-6.76,2.74,2.74,0,0,0-1.14-.71,2.84,2.84,0,0,1-1.69-1.49c-2.29-3.56-4.39-7.22-6.33-11a31.24,31.24,0,0,0-3-4.8c-.28-.36-.54-.73-.81-1.1a.6.6,0,0,1,.05-.86c.93-1,1.86-2,2.76-3a23.1,23.1,0,0,0,5-8.75,8,8,0,0,0-3-8.81c-1-.69-1.61-.6-2.29.38-.46.68-.88,1.39-1.47,2.33a50.3,50.3,0,0,0-4.94-8.15c-1.83-2.45-3.72-4.85-5.58-7.28s-4.26-4.49-6.37-7c8.48-.75,16.68-1.89,24.48-5.27,1,1.35,2,2.65,2.9,4,2.5,3.5,5,7,7.48,10.49a185.76,185.76,0,0,1,11.63,18c4.63,8.21,9.38,16.36,14.12,24.51,6.44,11.09,13.43,21.82,20.85,32.28a17.89,17.89,0,0,0,4.19,4.63c-.21.25-.36.46-.53.64a2.21,2.21,0,0,0-.27,3,13.57,13.57,0,0,0,3.89,4.06,3.88,3.88,0,0,0,3.71.59,1.6,1.6,0,0,1,2.14.64c.41.51.89,1,1.29,1.47,1.77,2.25,3.56,4.48,5.28,6.77a78,78,0,0,1,5,7.24,17.28,17.28,0,0,1,2.2,6,48.12,48.12,0,0,1,.7,9.13,73.79,73.79,0,0,1-2.19,15.43,2,2,0,0,1-1.22,1.57l-2.72,1.06a1.77,1.77,0,0,0-1.23,1.81,4.73,4.73,0,0,0,3.31,4.57,7,7,0,0,0,3.28.13,73.11,73.11,0,0,0,7.11-2.06,16.5,16.5,0,0,0,9.81-7.83,15.25,15.25,0,0,0,2.24-8.16c0-.91,0-1.83,0-2.74a3.47,3.47,0,0,1,.27-1.52.68.68,0,0,1,.94-.42c.73.27,1.44.6,2.17.86a1.63,1.63,0,0,0,2.29-.85,5.37,5.37,0,0,0,.42-.87c.42-1.16.83-2.33,1.23-3.5a6,6,0,0,0,.21-.95A2.77,2.77,0,0,0,248.34,435.17ZM197.14,277.7c-3.91,1-7.87,1.72-11.83,2.46A118.56,118.56,0,0,1,169,282c-3.64.17-7.29.22-10.93.25a116.15,116.15,0,0,1-12.09-.5c-1.23-.12-2.47-.11-3.7-.24-1.86-.19-2-.28-2.83-1.92a69.65,69.65,0,0,1-3.57-8.22,122.57,122.57,0,0,1-4.69-17.69c-1-4.91-1.78-9.85-2.53-14.8-.68-4.5-1.25-9-1.6-13.56a11,11,0,0,1,.08-2.92c.09-.49.28-.64.81-.58,1.74.19,3.49.36,5.23.6a39,39,0,0,0,5.06.3,120.23,120.23,0,0,0,16-.81,34,34,0,0,0,6.45-1.45.79.79,0,0,1,1.11.39,7,7,0,0,0,3.85,2.84,4.8,4.8,0,0,0,5.25-1c.29-.25.55-.53,1.05-1a26.77,26.77,0,0,0,4.09,8.19q1.37,2,2.82,4a2.13,2.13,0,0,1,.45,1.63,42.42,42.42,0,0,1-1.27,6.5,5.29,5.29,0,0,1-.43,1.08,2,2,0,0,1-3,.91,5,5,0,0,1-1.36-1.1,7.91,7.91,0,0,1-2.21-5.26,4.67,4.67,0,0,0-.21-1.33.61.61,0,0,0-.6-.41.65.65,0,0,0-.71.54,3.19,3.19,0,0,0,0,1.34,7.06,7.06,0,0,1-.09,3.48,13.58,13.58,0,0,1-3.64,7.41A8.83,8.83,0,0,1,161,251.3a1,1,0,0,1-1.15-.5c-.28-.44-.57-.87-.88-1.29a2,2,0,0,1-.4-1.07c-.1-1.36-.2-2.72-.37-4.08a4.71,4.71,0,0,1,.5-2.63,19,19,0,0,0,1.85-8.5,8.36,8.36,0,0,0-.45-2.48,4.18,4.18,0,0,0-.65-1.19,1.47,1.47,0,0,0-2.65.34,6.65,6.65,0,0,0-.54,2.65,55.5,55.5,0,0,0,.18,6c.09.91.08,1.82.22,2.72a3.64,3.64,0,0,1-.87,2.88A12.33,12.33,0,0,1,153,247a3.14,3.14,0,0,1-2.7.81.53.53,0,0,0-.36.09.68.68,0,0,0-.25.28.4.4,0,0,0,.1.52,1.8,1.8,0,0,0,1.82.34,8.58,8.58,0,0,0,3.61-2.23c.46-.45.89-.94,1.3-1.38.41,0,.42.29.43.55,0,.52.06,1,.08,1.43-.23.42-.52.26-.75.3-1.14.18-1.57.88-1.18,1.92a3.57,3.57,0,0,0,1.42,1.83,2.53,2.53,0,0,1,1.17,2.29,95.32,95.32,0,0,0,1.22,9.67,18.75,18.75,0,0,0,1.06,3.95,6,6,0,0,0,.61,1.21c.6.86,1.5.71,1.95-.28a4,4,0,0,0,.31-1.52,37.34,37.34,0,0,0-.21-6.43,33.69,33.69,0,0,0-1.81-7.48,13.82,13.82,0,0,0,4.73-2.23,14.38,14.38,0,0,0,3.29-3.83,27.91,27.91,0,0,0,1.94-4.94c.49.63.86,1.16,1.27,1.65a5.76,5.76,0,0,0,2.65,1.91,3.1,3.1,0,0,0,3.76-1.26,8.55,8.55,0,0,0,1.14-2.88c.18-.76.31-1.53.47-2.29s.27-1.41.41-2.11c.4-.2.57.12.77.35a32.84,32.84,0,0,1,3.15,4.45q3.48,5.66,6.9,11.33c.77,1.28,1.51,2.58,2.19,3.91a19.21,19.21,0,0,1,1.12,2.7,6.4,6.4,0,0,1-2.44,7.24,13.42,13.42,0,0,1-2.79,1.38c-1.1.42-1.31,1.18-.65,2.13a3.57,3.57,0,0,0,2.85,1.47,22.87,22.87,0,0,0,2.34-.08c1,0,1.29.23,1.42,1.17.05.32,0,.65.09,1a3.44,3.44,0,0,0,1.85,2.6c.4.22.82.38,1.24.57C198.22,277.59,197.64,277.58,197.14,277.7ZM163.4,207.88c-.23-1.54-.55-3.07-.81-4.6a5.56,5.56,0,0,1,0-.83c.83,0,1.6,0,2.37-.07a20.88,20.88,0,0,0,2.52-.27,5.68,5.68,0,0,1,3.62.36,16.49,16.49,0,0,0,3.57.94c.87.19,1.05.49,1,1.38-.22,2.14-.45,4.27-.66,6.4A12,12,0,0,1,173.5,216c-.65,1.13-1.23,2.29-1.83,3.44a9.43,9.43,0,0,1-1.43,2.09,3.32,3.32,0,0,1-3.16,1.15,5.82,5.82,0,0,1-4.37-2.94,2,2,0,0,1-.27-1.48c.17-.69.3-1.4.51-2.08A18.21,18.21,0,0,0,163.4,207.88Zm-1.75,58.83c-.53,0-.62-.3-.71-.61a32.21,32.21,0,0,1-1-4.76,42,42,0,0,1-.65-5.81,5.46,5.46,0,0,1-.36-2.19c0-.23,0-.56.3-.53s.37.28.41.54a1.1,1.1,0,0,1,0,.18A33.41,33.41,0,0,1,161.65,266.71Zm-3.44-27.64c-.15.16-.28.14-.4,0-.1-1.61-.24-3.23-.3-4.84a11.36,11.36,0,0,1,.14-2.33c.09-.51-.13-1.41.64-1.38.56,0,.63.88.74,1.45a13.17,13.17,0,0,1-.51,6.32c-.19.24-.14.57-.31.82Zm-.83,10.83a1.32,1.32,0,0,0-.08.19c-.07.16-.16.17-.28,0a2.26,2.26,0,0,1-.37-.39c-.08-.13-.22-.34,0-.45a.36.36,0,0,1,.32,0C157.19,249.49,157.41,249.63,157.38,249.9Zm54.72,20.53c-.53,1.33-1,2.65-1.6,4-.22.54-.54,1.05-.75,1.59-.77,1.94-2.44,2.59-4.27,3a2.74,2.74,0,0,1-2.95-1,5.29,5.29,0,0,0-3.57-2.17,3.68,3.68,0,0,1-1.09-.4,2,2,0,0,1-1.14-1.89,4,4,0,0,0,0-.77,2.54,2.54,0,0,0-2.84-2.32,8.09,8.09,0,0,0-1,.14,4.45,4.45,0,0,1-2.11-.22c-.3-.09-.73-.29-.77-.51-.1-.48.42-.52.75-.66a9,9,0,0,0,3.64-2.56A7.62,7.62,0,0,0,195.9,259a23.09,23.09,0,0,0-1.6-3.55c-1.72-3.21-3.77-6.23-5.61-9.37A116.23,116.23,0,0,0,179.91,233a63.32,63.32,0,0,1-5-7.47,16,16,0,0,1-1.72-4.12,3.36,3.36,0,0,1,.32-2.8c.42-.65.73-1.38,1.12-2.05a11.64,11.64,0,0,0,1.54-4.79c.13-1.48.3-3,.48-4.65a12.25,12.25,0,0,1,4.19,2.79,36.19,36.19,0,0,1,6.59,8.43,59.51,59.51,0,0,1,3.71,7.72c3.07,8.08,6.44,16,9.86,24,.61,1.44,1.21,2.88,1.78,4.33a5.25,5.25,0,0,0,1.29,1.92c1.93,1.84,3.84,3.71,5.81,5.51.76.69,1.68,1.22,2.51,1.85,1.46,1.11,1.6,1.55,1,3.33C213,268.14,212.55,269.28,212.1,270.43Zm23.2-16.74c.07-1.05.14-1.13,1.12-1.12l9.37.14c1.12,0,1.13,0,1.14,1.24,0,1.5,0,3,0,4.49q-.19,22.95-.39,45.88a2.56,2.56,0,0,1-.21,1.57,8.92,8.92,0,0,1-1.11.17l-11.49.66c-.81,0-.91-.06-.89-.85.08-2.87.19-5.73.28-8.59.22-7.61.42-15.22.65-22.83a8.71,8.71,0,0,1,.54-3.44,5.83,5.83,0,0,0,.25-2.11c.25-4.81.48-9.62.72-14.43C235.27,254.21,235.28,254,235.3,253.69Zm-74.83-69.62a7.88,7.88,0,0,1-.05-1,.67.67,0,0,1,.61-.65c.77-.12,1.54-.29,2.31-.34,6.42-.45,12.82-1.13,19.26-1.24,5.4-.09,10.8-.21,16.19,0a19.38,19.38,0,0,0,2.14.1,2.19,2.19,0,0,1,2.46,1.74,17.42,17.42,0,0,1,1.22,5.29c0,.39-.13.63-.53.64h-2.54c0-.57,0-.89,0-1.21a2.19,2.19,0,0,0-2.34-2.32c-1.75-.15-3.5-.28-5.26-.35-5.59-.21-11.18-.13-16.76.2q-4.19.25-8.37.59c-1,.08-2.06.24-3.09.39a3.44,3.44,0,0,0-.93.28,1.25,1.25,0,0,0-.85,1.55c.17,1.09.4,2.17.61,3.25,0,.26.12.51.17.76.15.91.11,1-.74,1.26l-.18.07c-1.21.37-1.28.36-1.61-.87A39.3,39.3,0,0,1,160.47,184.07Zm38.79,7.57c-.6.93-1.23,1.84-1.91,2.72a12.94,12.94,0,0,1-7.37,4.45,32,32,0,0,1-5.92.73,27.63,27.63,0,0,1-9.22-1.77,17.41,17.41,0,0,1-4.82-2.5c-1-.77-2.17-1.42-3.28-2.1a1.58,1.58,0,0,1-.78-1.26c-.17-1.22-.41-2.43-.63-3.65-.13-.67,0-.94.76-1,1.22-.17,2.45-.31,3.68-.42a210.47,210.47,0,0,1,21.45-.82c2.47.05,4.94.23,7.41.39,1.36.09,1.59.35,1.62,1.65C200.3,190,200.31,190,199.26,191.64Zm-51.79,6.87c4.4-1.15,8.77-2.4,13.24-3.26,1.34-.25,2.64-.67,3.95-1a1.82,1.82,0,0,1,1.66.27c1.24.83,2.53,1.58,3.75,2.45a18.21,18.21,0,0,0,4.37,2.12,26.59,26.59,0,0,0,16.09,1,14.07,14.07,0,0,0,8.66-5.89c.79-1.19,1.6-2.37,2.28-3.63a.9.9,0,0,1,.93-.54,100.71,100.71,0,0,0,11.12-.39,37.57,37.57,0,0,1,6.62.24,65.58,65.58,0,0,1,8.5,1.18c3.68.94,2.85.38,3.87,3.73a48.05,48.05,0,0,1,1.8,10.36c.2,2.6.3,5.2.39,7.8.13,4,.33,8.07.3,12.1-.05,5-.3,10-.47,15,0,1.23-.1,2.47-.15,3.7q-.45,10.05-.89,20.09c-.08,1.95-.21,3.9-.3,5.85a1.08,1.08,0,0,1-.77,1.15,38,38,0,0,1-7.61,2.39,18.7,18.7,0,0,1-4.66.2,34.52,34.52,0,0,0-7.4-.29,5.62,5.62,0,0,1,.66-2.34c.48-1.42,1.11-2.77,1.53-4.21a3,3,0,0,0-1.1-3.47,7.55,7.55,0,0,0-.77-.6c-2.9-1.91-5.22-4.49-7.74-6.83a5.91,5.91,0,0,1-1.41-2.08c-2.4-5.69-4.78-11.38-7.19-17.06a1.46,1.46,0,0,1,.08-1.61,12.05,12.05,0,0,0,1.62-5,3,3,0,0,1,.47-1.68,5.18,5.18,0,0,1,1.07,1.82,1.78,1.78,0,0,1,.06,1.84,2.46,2.46,0,0,0-.35,1.5,1.31,1.31,0,0,0,.89,1.16,1.26,1.26,0,0,0,1.2-.82,5.12,5.12,0,0,0,.15-1.74.67.67,0,0,1,.58-.67,10.41,10.41,0,0,1,1.35-.18,30.84,30.84,0,0,0,10.72-2.7c1.67-.73,3.31-1.51,5-2.28.53-.26.84-.8.61-1a.93.93,0,0,0-1.08-.18q-1.08.47-2.13,1a60.09,60.09,0,0,1-5.56,2.35,21.48,21.48,0,0,1-6.84,1.43c-1,0-2,.55-3.06.25l-1.38-2.56c-.22-.4-.45-.8-.69-1.18a4,4,0,0,1-.67-2,4.53,4.53,0,0,0-.46-1.88.75.75,0,0,0-.79-.45.73.73,0,0,0-.65.63,2.59,2.59,0,0,0,.16,1.72,6.44,6.44,0,0,1,.35,3.63,21.59,21.59,0,0,1-.91,4.78,8.35,8.35,0,0,1-.45,1.07c-.52,0-.56-.46-.69-.79-.76-1.93-1.54-3.86-2.27-5.81a74.81,74.81,0,0,0-3.71-8.16,37.86,37.86,0,0,0-5.56-8,19.31,19.31,0,0,0-6.07-4.82c-.59-.29-.93-.66-.76-1.36a2.91,2.91,0,0,0,0-.78,1.89,1.89,0,0,0-1.42-1.88,4.91,4.91,0,0,0-.94-.2,9.39,9.39,0,0,1-3-.8,6.46,6.46,0,0,0-3.63-.46c-.64.11-1.29.17-1.93.28a14.27,14.27,0,0,1-2.92.16,6.73,6.73,0,0,0-2.68.06,3.29,3.29,0,0,1-1.35-.07l-12.23-1.21a6.85,6.85,0,0,1-2.17-.43A10.1,10.1,0,0,1,147.47,198.51ZM126.4,202c3.48-.46,7-.79,10.47-1a72.23,72.23,0,0,1,10.51.37c3,.26,6.08.61,9.11.93,1,.11,2.06.29,3.1.35,1.63.1,1.52.16,1.84,1.65a49,49,0,0,1,.88,5.77,15.73,15.73,0,0,1-.37,4.84c-.24,1.08-.58,2.13-.83,3.21a1.65,1.65,0,0,1-1.26,1.32,38.43,38.43,0,0,1-5.71,1.22,111.35,111.35,0,0,1-17.12.77c-2.79-.1-5.56-.51-8.34-.79a8.14,8.14,0,0,1-1-.22.85.85,0,0,1-.74-.77c-.71-4.62-2.6-8.82-4.64-13a22.39,22.39,0,0,0-2.63-3.77Zm-25.64-19.89c.2-.22.65,0,1.13.5a5.83,5.83,0,0,1,1.55,4.37,9.66,9.66,0,0,1-.18,1c-.06.23-.22.58-.38.6-.39.06-.48-.31-.59-.62a34.52,34.52,0,0,1-1.62-4.75C100.6,182.81,100.45,182.42,100.76,182.08ZM79.65,211.56l3-1.76a5.52,5.52,0,0,0,2.71-3.87c.15-.76.35-1.52.44-2.3a1.12,1.12,0,0,1,.91-1.08,12.84,12.84,0,0,0,3.67-1.77A4.91,4.91,0,0,0,92,199.32a.55.55,0,0,0,0-.71.63.63,0,0,0-.71-.16.93.93,0,0,0-.32.21c-1.81,1.85-4.15,2.6-6.57,3.17a20.25,20.25,0,0,1-2.31.39,6.45,6.45,0,0,1-7.06-4.3,24.53,24.53,0,0,1-1.63-9.16c0-1.23.06-2.47.07-3.71a36.68,36.68,0,0,0-.26-5.64c-.11-.84-.12-1.69-.17-2.54a1.51,1.51,0,0,1,.36-1.07,15.33,15.33,0,0,1,7.07-5,3.19,3.19,0,0,1,.76-.14c.53-.07.75.1.79.59,0,.26,0,.52,0,.78a1.45,1.45,0,0,0,1.42,1.56,11.31,11.31,0,0,0,1.55.12c1,0,2.08,0,3.12.1a5.66,5.66,0,0,1,4.47,2.43,35.32,35.32,0,0,1,2.18,3.46A38.5,38.5,0,0,1,98,188a54,54,0,0,0,3.31,8.74,15.56,15.56,0,0,0,6.69,7.39,1.41,1.41,0,0,1,.86,1.71c-.39,2-.66,4.11-1.08,6.15a19.06,19.06,0,0,1-7.59,11.43,6.87,6.87,0,0,1-1.54.82,3.36,3.36,0,0,1-3-.13c-.29-.15-.57-.31-.85-.49l-12.48-8a19.89,19.89,0,0,1-3-2.47c-.27-.26-.59-.51-.61-.93C78.91,211.82,79.32,211.75,79.65,211.56Zm-29.17,12.1a31.07,31.07,0,0,1,4.83-2,2.46,2.46,0,0,1,1.29-.11s0,0,0,0h.08a2.46,2.46,0,0,1,.59-.36,94.28,94.28,0,0,0,11.4-4.54c2.33-1,4.64-2.05,6.95-3.08.35-.16.71-.29,1.15-.46a3.19,3.19,0,0,1,0,2.13,35.73,35.73,0,0,0-.37,6,29.45,29.45,0,0,0,1.92,10.72,3.87,3.87,0,0,1-2.14-.08c-3.92-.63-7.74-1.68-11.58-2.65a4,4,0,0,1-3.11-2.46c-.91-2.15-2.7-3.63-4.38-5.17-.1-.09-.3-.06-.47-.07l0,0h0a.9.9,0,0,0,.07,1.21c.4.42.81.84,1.24,1.23a10,10,0,0,1,2.19,2.86c-.23.45-.47.22-.66.12-.75-.38-1.48-.81-2.23-1.19a13.49,13.49,0,0,0-6.15-1.62l-.73,0C50.4,223.87,50.4,223.7,50.48,223.66Zm-4.31,2.12a10.2,10.2,0,0,1,1.1,0l.73-.07h0a1.81,1.81,0,0,1,1.6-.32,6.9,6.9,0,0,1,3.6.3,10.53,10.53,0,0,1,5.2,2.33,5.87,5.87,0,0,1-3.43-.64,9.22,9.22,0,0,0-3.43-1.29h0l-1.17,0-3.13,0c-.36.06-.73.11-1.09.19-.15,0-.27,0-.29-.15A.31.31,0,0,1,46.17,225.78ZM42,229.09a2,2,0,0,1,1.34-1,20.09,20.09,0,0,1,7.31-.75h0c.58-.06,1.19-.26,1.62.35.18.19.08.32-.12.35a5.3,5.3,0,0,1-.69,0l-1.15.05h0c-.89.22-1.76.45-2.65.66a19.38,19.38,0,0,0-6.13,2.55C41.16,230.36,41.67,229.73,42,229.09ZM77.85,242c-4.44,1-8.87,2-13.28,3.12a34.93,34.93,0,0,1-10.8,1.31,28.26,28.26,0,0,1-10.4-2.36,10.9,10.9,0,0,1-3.65-2.55c-.93-1.06-1.43-2.14-.76-3.54a13,13,0,0,0,.62-1.85,7,7,0,0,1,3.5-4.26,16.28,16.28,0,0,1,1.54-.82A27.7,27.7,0,0,1,54.21,229a54.55,54.55,0,0,1,12.2,1.9,95.77,95.77,0,0,0,14.71,2.94,8.67,8.67,0,0,0,4.22-.51c1.71-.63,3.4-1.3,5.09-2a54.39,54.39,0,0,1,7.93-2.68c.83-.19,1.66-.36,2.49-.48a5.8,5.8,0,0,1,2.89.22,2.11,2.11,0,0,1,1.55,2.41,6.72,6.72,0,0,0,.52,3.79,2.08,2.08,0,0,1,0,1.88,4.24,4.24,0,0,0-.4,2.27,2.82,2.82,0,0,1-1.41,2.61,16.48,16.48,0,0,1-3.81,1.94,61.93,61.93,0,0,1-7.35,1.9,4.62,4.62,0,0,1-3.73-.67,22.84,22.84,0,0,0-2-1.2A13.09,13.09,0,0,0,77.85,242Zm31.46,32.24a257.35,257.35,0,0,1-17.67-21.84,74.78,74.78,0,0,1-4.26-6.3c0-.66.32-.75.85-.43s1,.54,1.58.75a5,5,0,0,0,2.87.27c2.48-.56,5-1.05,7.38-1.84a18.75,18.75,0,0,0,4.55-2.2,4,4,0,0,0,2.08-3.71,4.41,4.41,0,0,1,.45-2.08,2.86,2.86,0,0,0,0-2.46,6.92,6.92,0,0,1-.51-3.43,3.64,3.64,0,0,0-3.39-4,11.44,11.44,0,0,0-3.5.12,43.77,43.77,0,0,0-8,2.42c-2.25.87-4.48,1.76-6.74,2.58a7.36,7.36,0,0,1-3.64.45,1.84,1.84,0,0,1-1.62-1.12,20.39,20.39,0,0,1-1.59-5.81,36.81,36.81,0,0,1,0-10.89,2,2,0,0,1,.16-.33c.4-.11.58.22.82.41.77.6,1.48,1.28,2.3,1.81,4.26,2.76,8.54,5.48,12.81,8.22a5.45,5.45,0,0,0,6.72-.26c4.59-3.47,7.65-7.92,8.44-13.74.26-1.87.53-3.73.77-5.6a.73.73,0,0,1,.57-.69c.76-.18,1.52-.38,2.28-.53,1.41-.27,2.82-.48,4.22-.77a1.38,1.38,0,0,1,1.39.48,14.25,14.25,0,0,1,2.25,2.94,52.23,52.23,0,0,1,4.63,11.76,13.9,13.9,0,0,0,.55,2.86c.1.2,0,.51,0,.76a19.05,19.05,0,0,0-.06,5.06c.43,4.8,1.06,9.57,1.82,14.32a210,210,0,0,0,4.81,23.68c.09.31.16.63.25.94a1.12,1.12,0,0,1-.43,1.37c-.37.26-.72.56-1.09.83-3.71,2.75-7.43,5.48-11.12,8.26-1.45,1.1-2.82,2.3-4.23,3.46-.88.72-.9.73-1.7-.17C112.59,278,111,276.11,109.31,274.27ZM143.65,376.6c-.09-.43.11-.57.52-.49a47.74,47.74,0,0,1,5.19,5.26c1.67,2.05,1.69,2.39-.13,4.23a5.63,5.63,0,0,0-1.62,3.44,25.53,25.53,0,0,1-1.48,6,86.25,86.25,0,0,1-6.68,14.07,17.33,17.33,0,0,1-2.73,3.54,6.9,6.9,0,0,1-1.87,1.39,1.43,1.43,0,0,1-1.92-.35,4.77,4.77,0,0,1-1.29-2.58,6.84,6.84,0,0,1,1.47-5.65c.73-.92,1.42-1.86,2.16-2.76s1.37-1.56,2.06-2.34A27.7,27.7,0,0,0,144.1,387,21.3,21.3,0,0,0,143.65,376.6Zm-10.51-15.73c2,3.88,4.15,7.65,6.51,11.31.46.71.89,1.44,1.35,2.15a14.87,14.87,0,0,1,2.19,9.51A25.9,25.9,0,0,1,135.81,400c-.49.51-.95,1.06-1.42,1.59a.34.34,0,0,1-.53-.05c.34-1.78.76-3.55,1-5.36a32.41,32.41,0,0,0-3.53-19.43c-1.4-2.72-2.94-5.35-4.59-7.92-1.41-2.19-2.8-4.38-4.22-6.56-.24-.37-.34-.69.08-1a46,46,0,0,0,6.21-5.62c.43-.45.6-.4,1.06.16A28.77,28.77,0,0,1,133.14,360.87Zm0-24.89c.25-.46.52-.91.79-1.35s.58-.53.93-.21a7,7,0,0,1,2.59,5.13,10.72,10.72,0,0,1-1.05,4.05,24.53,24.53,0,0,1-3.84,6.07c-2.43,2.8-5,5.41-7.7,8a31,31,0,0,1-4.29,3.37,9.91,9.91,0,0,1-1.51.88,2.6,2.6,0,0,1-2.77-.22,15.11,15.11,0,0,1-3-3c-.19-.24-.15-.58.13-.64.85-.19,1.2-.92,1.75-1.44.8-.76,1.6-1.52,2.45-2.23,1.18-1,2.41-2,3.61-3A46.09,46.09,0,0,0,131,339.91C131.81,338.63,132.46,337.28,133.18,336Zm2.51-27.81a56.68,56.68,0,0,1-11,2.72c-2.18.37-4.37.62-6.56.93a13.26,13.26,0,0,1-4.66,0,2,2,0,0,0-.77,0,.65.65,0,0,0-.33,1.07c1.69,1.8,3.43,3.56,5.09,5.39a98.53,98.53,0,0,1,11.25,14.94c.7,1.17,1.31,2.39,2,3.57a.85.85,0,0,1,0,.91,36.17,36.17,0,0,1-2.76,4.48,47.94,47.94,0,0,1-9.32,9.66,41.29,41.29,0,0,0-4.66,4.07c-.22-.12-.37-.15-.44-.24-1.91-2.7-4.21-5.11-6-7.9-4.09-6.26-8.27-12.46-12.4-18.69-1.44-2.17-3-4.24-4.61-6.3a21.4,21.4,0,0,1-3.86-8,10.29,10.29,0,0,1,2.5-9.77,33.45,33.45,0,0,1,3.08-3c3.36-2.88,6.75-5.72,10.12-8.59.89-.76,1.76-1.54,2.61-2.35a101.9,101.9,0,0,1,8.41-7.27c1-.75,1.94-1.54,2.86-2.37,2.75-2.5,5.77-4.66,8.71-6.91,2.58-2,5.19-3.92,7.8-5.87.15-.11.33-.19.46-.27.44,0,.38.32.47.53a5.76,5.76,0,0,1,.27.73,83.11,83.11,0,0,0,4,9.72c.34.7.74,1.37,1.15,2a2.59,2.59,0,0,0,1.89,1.24c.33,0,.65.08,1,.11a198.16,198.16,0,0,0,30.43.36c1-.05,1.91-.17,2.86-.25.17.55-.23.76-.48,1a42.3,42.3,0,0,1-9.25,7.74c-6.43,4-12.91,7.8-19.41,11.62A70.87,70.87,0,0,1,135.69,308.17Zm63.73,91.27c-.74-.9-1.47-1.82-2.14-2.78-6-8.56-11.92-17.21-17.26-26.23-5.82-9.84-11.62-19.7-17.21-29.68a187.4,187.4,0,0,0-12.35-19.18c-2.31-3.14-4.53-6.35-6.81-9.52-1-1.41-2.08-2.81-3.26-4.41a134.23,134.23,0,0,0,15.34-8.55c4.85-3,10-5.6,14.44-9.13a3.62,3.62,0,0,1,1.2,1.59c5.11,8.61,10.19,17.24,15.31,25.84,2,3.35,4,6.7,6.11,10a210.25,210.25,0,0,1,11.52,20.57q5.92,12,11.87,23.92A39.37,39.37,0,0,0,220,378.4a5.61,5.61,0,0,1,1,1.9,4,4,0,0,1-.65,3.84,73.53,73.53,0,0,1-5.22,6.05,16.36,16.36,0,0,1-2.4,2,53.85,53.85,0,0,0-8.23,7.15,14.36,14.36,0,0,1-1.59,1.43,1.47,1.47,0,0,1-1.48.17A4.47,4.47,0,0,1,199.42,399.44Zm8.14,9.39a2.94,2.94,0,0,1-3.31-.11,12.4,12.4,0,0,1-3.62-3.77c-.37-.59-.3-.86.16-1.39a3.57,3.57,0,0,1,1.75-1.2,5.28,5.28,0,0,0,2.54-1.72A52.27,52.27,0,0,1,213.9,393a13.43,13.43,0,0,0,2.22-1.9,68.44,68.44,0,0,0,5.21-6.06,5.34,5.34,0,0,0,1.29-3.18,1.8,1.8,0,0,1,.22-.93c.42-.72.93-.87,1.58-.38a10.26,10.26,0,0,1,3.42,4.42c.14.36.21.75.26.9a2.76,2.76,0,0,1-.37,1.72c-.54.89-1.06,1.79-1.67,2.63A81,81,0,0,1,216.48,401c-2.11,2-4.28,4-6.43,6A13.81,13.81,0,0,1,207.56,408.83Zm15.67,47A63.76,63.76,0,0,0,225,437.26a46.74,46.74,0,0,0-.67-5.41,17.7,17.7,0,0,0-2.38-6.15,98.87,98.87,0,0,0-7.86-10.91,57.34,57.34,0,0,0-4.29-5.06,2.08,2.08,0,0,1-.29-.54c3.33-2.79,6.39-5.86,9.5-8.77.21.09.3.1.31.13,1.24,3.57,2.95,6.93,4.5,10.37a46.49,46.49,0,0,0,9.07,13.3c1.23,1.26,2.43,2.55,3.57,3.88a8.35,8.35,0,0,1,1.83,8.18,33.07,33.07,0,0,1-3.21,7.92,57.68,57.68,0,0,1-8.57,11.34,28.79,28.79,0,0,1-2.2,1.92,1.48,1.48,0,0,1-1.31.43A4.85,4.85,0,0,1,223.23,455.83Zm25-17.24c-.41,1.3-.88,2.59-1.37,3.86-.3.77-.53.83-1.36.52-.6-.23-1.19-.53-1.81-.7a1.94,1.94,0,0,0-2.65,1.55,8.39,8.39,0,0,0-.23,2.91c.48,5.11-1.53,9.26-5,12.82a10.05,10.05,0,0,1-3.35,2.31,49.51,49.51,0,0,1-10,3.15,4.88,4.88,0,0,1-2.31-.15,3.11,3.11,0,0,1-2.18-2.29c-.31-1.16-.14-1.49,1-1.93.66-.27,1.35-.49,2-.82a3,3,0,0,1,2-.43,2.32,2.32,0,0,0,1.82-.57A22.25,22.25,0,0,0,227,457a57.42,57.42,0,0,0,9.5-12.57,34.85,34.85,0,0,0,3.08-7.78,12.73,12.73,0,0,0,.25-4.9c1.36.87,2.44,1.58,3.54,2.25a36,36,0,0,0,3.74,2.09A1.74,1.74,0,0,1,248.24,438.59Z"/><path fill="#010101" d="M418.71,58.32c0-3.18-.11-6.37-.16-9.56h-.18c0-2.14,0-4.29,0-6.44,0-1.49,0-3-.08-4.49,0-.9-.32-1.17-1.21-1.09-1.75.14-3.5.34-5.25.51l-10.09,1-9.52.92-10.48,1-9.32.91-10.48,1-9.32.92-10.29,1L333,45l-10.48,1.05c-3.11.31-6.22.55-9.32.94-1.92.24-2.09-.19-1.94,2.19q.62,9.84,1.24,19.67a5.7,5.7,0,0,0,.06.58.85.85,0,0,0,.93.8c.52,0,1-.06,1.56-.11l7.38-.68,9.52-.89,11.26-1,9.72-.91,11.07-1,9.91-.92,10.87-1,10.1-.94,10.3-1c3.43-.32,6.86-.61,10.3-.93.71-.06,1.42-.15,2.13-.24.94-.11,1.06-.25,1.09-1.25C418.73,59,418.72,58.65,418.71,58.32Zm-2.14,1-8,.76-15.73,1.47c-3.44.32-6.87.61-10.3.93l-10.49,1L362,64.44l-10.68,1-10.11.94-10.88,1-10.1.93-5.44.48c-.75.06-.88-.07-1-.85,0-.26-.05-.52-.07-.78q-.45-7.5-.92-15c0-.32-.05-.65-.05-1,0-.89-.41-1.78,0-2.67.82-.14,1.64-.33,2.47-.41,4.54-.45,9.07-.87,13.6-1.31l13.78-1.4,9.33-.91,10.29-1,9.32-.92,10.48-1,9.52-.92,10.1-1,9.51-.93c1.62-.16,3.24-.32,4.86-.44.87-.07,1,0,1,1q.11,4.79.19,9.56h0c.07,2.92.15,5.85.22,8.78,0,.32,0,.65,0,1C417.37,59.15,417.25,59.27,416.57,59.34Z"/><path d="M504,443.9q-.74-6.7-1.19-13.42-.48-7.41-.93-14.81-.57-9.36-1.12-18.71-.27-4.48-.49-9c-.2-4.35-.49-8.71-.56-13.07-.26-15.75-.13-31.5-.05-47.26,0-2.14,0-4.29.09-6.44.28-10.87.43-21.74.38-32.61-.05-13.73-.41-27.47-.19-40.47,0-11,.16-21.3.42-31.58.09-3.65.11-7.29.17-10.94.18-11.13.4-22.26.52-33.39.05-4.29-.11-8.59-.19-12.89-.19-10.08-.06-20.17-.07-30.26q0-11.15.38-22.26a114.78,114.78,0,0,0-1.08-22c-.3-1.93-.65-3.85-.91-5.78-.38-2.84-.68-5.69-1.07-8.52a62.8,62.8,0,0,1-.92-7.35,2.6,2.6,0,0,0-.05-.39,1.1,1.1,0,0,0-.86-1,7.73,7.73,0,0,0-1-.18,41.74,41.74,0,0,0-8-.38c-5.21,0-10.4.51-15.59.91-1.75.14-3.49.39-5.24.56-2.91.29-5.79.85-8.72,1-1.82.1-3.64.27-5.45.44q-5.64.54-11.27,1.11c-1.75.17-3.5.35-5.23.59-2.71.39-5.4.87-8.1,1.24-6.64.91-13.33,1.41-20,2.39-3.09.45-6.2.74-9.3,1.1-2.39.28-4.78.66-7.18.78-6.63.34-13.24.9-19.85,1.55s-12.95,1.23-19.42,2-12.78,1.62-19.2,2.17c-5.64.49-11.25,1.25-16.91,1.53q-3.81.18-7.6.44c-7.66.53-15.32,1.12-23,1.28-3.84.09-7.69.19-11.51.47-4.87.35-9.72.89-14.58,1.35-.32,0-.64.07-1,.09a43.27,43.27,0,0,1-5.46,0c-1.92-.17-3,.57-2.77,2.48s.32,4,.57,6a103.91,103.91,0,0,1,1,11.27c0,1.17.08,2.34.17,3.51.21,3.06.33,6.11.3,9.17s-.11,6.26,0,9.38c.34,8.26,1.33,16.47,2,24.7.31,3.7.65,7.39.94,11.09.45,5.78.79,11.56,1.32,17.33q1.08,11.76,1.74,23.55c.45,8.39.76,16.78,1.1,25.17.14,3.38.13,6.77.29,10.15.32,7.22.47,14.44.51,21.67,0,5.6.17,11.19.35,16.79.21,6.5.29,13,.41,19.52.22,12.89.39,25.77.64,38.66.18,9.37.45,18.74.68,28.11.17,6.77.28,13.54.53,20.3.31,8.33.74,16.65,1.1,25q.58,13.28,1.14,26.53c0,.33,0,.65.06,1,.54,4.65.8,9.33,1.1,14a5.29,5.29,0,0,0,.32,1.51.88.88,0,0,0,.84.66c1.11,0,2.21,0,3.32,0,5.92-.15,11.84-.26,17.76-.4,8.39-.19,16.79-.22,25.19.16,5.39.25,10.8.09,16.2.22,10.61.26,21.22.32,31.83.05,10.28-.25,20.57-.18,30.85-.05,3.84,0,7.68.24,11.52.42,6.24.3,12.47.69,18.71,1,6.71.3,13.41.2,20.12,0,7.35-.19,14.69-.6,22.05-.65,3.06,0,6.12-.07,9.17-.26a89.72,89.72,0,0,1,11.71-.06c2.53.17,5.07.2,7.6.34a42.42,42.42,0,0,0,8.72-.86,2.25,2.25,0,0,0,2.11-2.39A21.5,21.5,0,0,0,504,443.9Zm-178.61,4.5c-6.32.05-12.62-.43-18.94-.46-8.26-.05-16.53-.11-24.79.21-4.16.17-8.33.22-12.5.32-.51,0-1-.06-1.48-.09-.4-.45-.29-.93-.33-1.37-.41-5.06-.86-10.11-1.19-15.18-.18-2.79-.19-5.59-.35-8.38-.26-4.42-.38-8.85-.57-13.27q-.24-5.94-.49-11.9c-.25-5.78-.55-11.57-.73-17.36q-.47-15.42-.8-30.84-.5-21.09-.9-42.17c-.14-7.16-.14-14.32-.28-21.48-.11-5.6-.34-11.19-.49-16.78-.09-2.93-.21-5.86-.19-8.79.06-9.37-.28-18.74-.62-28.11-.22-6.11-.38-12.23-.65-18.34q-.42-9.56-1-19.11c-.26-4.42-.59-8.83-.93-13.24-.25-3.31-.57-6.61-.84-9.92-.35-4.48-.67-9-1-13.43-.33-4-.68-8-1-12.06-.72-8.43-1.77-16.83-1.88-25.3,0-.72,0-1.44,0-2.15a157.27,157.27,0,0,0-.4-16.39c-.17-3.25-.28-6.5-.71-9.73q-.51-3.87-.93-7.75c-.22-2-.2-2,1.93-1.84a38.63,38.63,0,0,0,6.63,0c4.34-.42,8.67-.9,13-1.35q.78-.07,1.56-.09c4.88-.1,9.76-.44,14.64-.46,2.6,0,5.2-.24,7.8-.41,4.54-.28,9.09-.6,13.63-.9.33,0,.65,0,1,0a.54.54,0,0,1,.56.44c.15.7.31,1.4.39,2.11.26,2.46.55,4.91.72,7.38.35,4.87.6,9.74.92,14.61.33,5.07.72,10.13,1.42,15.16.86,6.25,1.61,12.52,2.13,18.81.41,4.79.93,9.58,1.37,14.38.34,3.63.64,7.26.94,10.89q.72,8.55,1.41,17.12c.31,3.76.63,7.52.84,11.29.58,10.53,1.12,21.06,1.15,31.61,0,7.81,0,15.62,0,23.43,0,12.11,0,24.22.39,36.32.34,10.28.61,20.56,1,30.84.28,8.39.64,16.78.94,25.17q.34,9.47.6,18.93c.13,4.29.19,8.59.35,12.88a2.52,2.52,0,0,1-1.06,2.32c-2.48,1.91-4.85,4-7.37,5.79a179.89,179.89,0,0,1-19.23,12.63c-3.36,1.85-6.6,3.92-9.89,5.89a6.23,6.23,0,0,0-.78.57.49.49,0,0,0-.13.68.62.62,0,0,0,.7.2,3.49,3.49,0,0,0,.7-.34c7.07-4.13,14.28-8,21.06-12.65,4.95-3.36,9.81-6.86,14.45-10.65.39-.32.81-.63,1.41-1.1.08.45.13.63.14.81.07,4.42.12,8.85.24,13.28a1.52,1.52,0,0,1-1,1.65c-2.13,1-4.21,2-6.34,3-6.39,2.9-13,5.24-19.52,7.87l-13.72,5.56a11.56,11.56,0,0,0-1.23.59.56.56,0,0,0-.26.82.49.49,0,0,0,.66.22l2.18-.84c6.46-2.56,12.9-5.17,19.38-7.68s12.81-5,19-8.12c.23-.11.45-.29.73-.11a2.12,2.12,0,0,1,.14,1.29c0,9.57,0,19.14.13,28.71.08,7.55.31,15.1.47,22.64,0,.52.08,1,.11,1.56C327.66,448.67,328.08,448.38,325.34,448.4Zm2.9-24.85q-.11-15.42-.14-30.85c0-1.95-.23-1.57,1.5-2.52,9.58-5.25,19.16-10.51,28.11-16.8A190.31,190.31,0,0,0,378.36,357a81.26,81.26,0,0,0,8.41-9.75,1.12,1.12,0,0,0,.2-.33.51.51,0,0,0-.23-.67.63.63,0,0,0-.53-.06,3.27,3.27,0,0,0-1.12,1.07c-1,1.32-2.1,2.65-3.17,4a52,52,0,0,1-6,6.18,203.53,203.53,0,0,1-33.07,23.76c-4.28,2.47-8.6,4.87-12.91,7.28a3,3,0,0,1-1.86.68c0-1.82-.05-3.63-.08-5.44-.05-2.93-.07-5.86-.16-8.79a2.5,2.5,0,0,1,.94-2.19,217.54,217.54,0,0,0,18.26-18.18,160.53,160.53,0,0,0,14.69-18.48,72.83,72.83,0,0,0,8.79-17.13,12,12,0,0,0,.47-1.88.54.54,0,0,0-.43-.57.58.58,0,0,0-.66.29,1.83,1.83,0,0,0-.18.34c-.07.18-.14.36-.2.55A69.14,69.14,0,0,1,360.2,336a180.37,180.37,0,0,1-18.8,22.67c-3.88,4-7.79,8-12,11.76-.34.3-.68.6-1,.89-.19.15-.52,0-.54-.31s0-.78,0-1.17c-.05-3.06-.06-6.12-.15-9.18-.21-6.57-.46-13.14-.7-19.71q-.54-15-1.09-30.06c-.22-6.31-.34-12.62-.58-18.93-.77-19.78-.68-39.57-.68-59.36,0-6.25,0-12.5-.12-18.75-.06-3.91-.31-7.81-.5-11.71-.16-3.18-.31-6.37-.53-9.55-.33-4.87-.72-9.73-1.1-14.6-.3-4-.59-7.92-.92-11.88-.3-3.69-.64-7.39-1-11.08-.3-3.37-.62-6.74-.94-10.11-.69-7.19-1.25-14.39-2.27-21.54-1.08-7.48-1.68-15-2.1-22.54-.29-5.14-.53-10.27-1.13-15.38-.17-1.43-.4-2.84-.6-4.26a1.54,1.54,0,0,1,0-1,2.69,2.69,0,0,1,1.49-.22c5.13-.35,10.25-.83,15.36-1.39,3-.33,5.95-.58,8.93-.91,2.72-.29,5.42-.65,8.14-1,4.2-.48,8.4-1,12.61-1.41,3.49-.37,7-.74,10.49-1,5.7-.47,11.39-1.17,17.12-1.39a96.41,96.41,0,0,0,10.3-1c2.31-.33,4.65-.5,7-.78,2.58-.31,5.16-.67,7.74-1,3-.36,5.94-.73,8.92-1,4.41-.44,8.77-1.12,13.14-1.83,1.71-.28,2.24-.75,2.36,2,.32,7.35.47,14.7.52,22,0,2.28.21,4.56.34,6.83.26,4.42.49,8.84.81,13.25.26,3.7.63,7.39.92,11.09.2,2.53.36,5.07.49,7.6.33,6.31.67,12.61.94,18.92.63,14.44.82,28.89.74,43.34-.09,15.11.22,30.21.53,45.31.18,8.46.11,16.92.24,25.39.17,10.74.45,21.47.64,32.21.11,5.93.13,11.85.2,17.77.14,12.24.2,24.48.43,36.72.21,10.93.5,21.86.95,32.79.28,6.77.37,13.54.59,20.3.12,4,.32,7.94.52,11.9.14,2.73.34,5.46.49,8.19s.39,5.32.76,8c0,.13,0,.26,0,.39.05.66-.06.82-.73.85-1.76.07-3.51.12-5.27.17l-22.84.62q-11.43.3-22.84.6c-8.27.23-16.53.49-24.79.71l-34.36.9c-2.28.07-4.56.18-6.83.24-.92,0-1-.08-1-1C328.39,430.84,328.27,427.2,328.24,423.55ZM449,449.33a1.28,1.28,0,0,1-.93.26c-6.31.16-12.62.48-18.94.33q-6.44-.14-12.88-.47c-10.78-.57-21.57-1.13-32.38-1.14-11.26,0-22.52.15-33.78.27-4.43.05-8.85-.07-13.28-.11l-6.84-.06c-1,0-1.05-.05-1.09-.94-.13-3.19-.26-6.37-.36-9.56,0-1.11,0-1.13,1.25-1.16l16.4-.44,23-.64c7.62-.21,15.23-.39,22.84-.6q12-.33,24-.69l28.5-.79H445c2.84,0,2.43-.43,2.72,2.38.42,4.14.89,8.28,1.33,12.42A7.41,7.41,0,0,1,449,449.33Zm53.66-2.05a1,1,0,0,1-1,1,47,47,0,0,1-11.84.74c-3-.29-6.11-.44-9.16-.47-2.73,0-5.47.15-8.2.33-3.38.24-6.76.26-10.14.28s-7,0-10.54.25c-.2,0-.39,0-.59,0-.68,0-.81-.09-.88-.74-.26-2.33-.5-4.66-.75-7-.44-4.07-.85-8.15-1.33-12.22-.52-4.4-.78-8.82-1-13.24-.64-11.11-.73-22.24-1.17-33.37-.89-22.44-1.09-44.9-1.31-67.35-.12-12.31-.43-24.61-.64-36.91,0-2.08,0-4.16,0-6.25-.52-12.43-.22-24.87-.53-37.29-.27-11.39-.37-22.79-.47-34.18-.07-7.74.07-15.49,0-23.24q-.19-14-.67-27.91c-.2-6.05-.62-12.09-1-18.14-.27-4.67-.56-9.35-.9-14-.28-4-.71-7.91-.92-11.88-.38-7.47-.94-14.94-.87-22.43.05-4.82-.33-9.63-.56-14.44,0-.39-.05-.78,0-1.17,0-.63.17-.83.76-.88l8.75-.82c4.47-.41,8.94-.79,13.41-1.23,2.26-.22,4.51-.58,6.77-.84,1.75-.21,3.5-.37,5.25-.53,5-.45,10-.67,15-.86a44.35,44.35,0,0,1,6.82.37c.85.09,1,.27,1.06,1.09.19,4.1,1,8.14,1.47,12.2.6,4.91,1.38,9.79,2,14.69a82.17,82.17,0,0,1,.41,13.85c-.32,6.57-.31,13.14-.41,19.72-.1,6.12-.16,12.24-.14,18.35s.16,12.37.25,18.55q.24,17.58-.24,35.15c-.16,5.73-.18,11.46-.29,17.19-.34,16.92-.66,33.84-.54,50.77.05,7.42.2,14.84.28,22.26.11,9.83-.08,19.66-.29,29.49-.16,7.28-.11,14.58-.25,21.87-.21,10,0,19.92,0,29.88,0,7.87.36,15.74.85,23.6.36,5.79.61,11.57,1,17.36.43,6.88.91,13.76,1.38,20.65.14,2.14.34,4.28.43,6.42s.39,4.41.68,6.6A27.14,27.14,0,0,1,502.69,447.28Z"/><path fill="#010101" d="M69.78,455a7.86,7.86,0,0,0-.73-.91,52.22,52.22,0,0,0-4.64-5,2.86,2.86,0,0,1-1-2.76A23.77,23.77,0,0,0,63,438.9a30.24,30.24,0,0,0-6-13.8,1.42,1.42,0,0,1-.16-1.75,10.59,10.59,0,0,0,.91-6.65,7.87,7.87,0,0,0-1.89-4A5.84,5.84,0,0,0,49.35,411,7.82,7.82,0,0,0,46,413.33a11,11,0,0,0-1.49,2.28.67.67,0,0,1-.79.4c-.32-.05-.63-.13-.95-.2a20.55,20.55,0,0,0-15.53,2.75,21.91,21.91,0,0,0-5.52,4.91,1.26,1.26,0,0,1-1.62.56,6.44,6.44,0,0,0-6.4,1.22c-.25.2-.78.56-.78.56a.81.81,0,0,0,.49.42c.28.08.57-.13.91-.4a5.79,5.79,0,0,1,4-1.31c1.94.09,2.44.93,1.49,2.6a29.43,29.43,0,0,0-3.29,9.3c-.16.81-.08,1.89-1,2.17-.7.23-1.15-.19-1.55-.68l-.24-.31c-.11-.13-.21-.26-.32-.38s-.31.21-.29.47a6.93,6.93,0,0,0,.16.89,10.16,10.16,0,0,0,1.54,1.18,1.29,1.29,0,0,1,.76,1.41,28.15,28.15,0,0,0,.78,7.54,29.54,29.54,0,0,0,9.28,15.91,22.63,22.63,0,0,0,2.63,2,1.31,1.31,0,0,1,.65,1.29c0,.45,0,.91,0,1.36-.05,1.63-.11,3.25-.13,4.88,0,.78,0,1.56.09,2.34a.85.85,0,0,0,.54.75.79.79,0,0,0,.89-.21,11.36,11.36,0,0,0,1-1.2c1.22-1.69,2.45-3.37,3.59-5.1.64-1,.78-.79,1.58-.63a20.27,20.27,0,0,0,13.12-1.58,23.49,23.49,0,0,0,10.83-10.85c.23-.46.44-.94.65-1.41a.88.88,0,0,1,1.06-.62c1,.16,1.93.24,2.9.38a22.37,22.37,0,0,0,4.09.17A.79.79,0,0,0,69.78,455ZM48.93,412.63a4.69,4.69,0,0,1,6.46,1.58c1.74,2.76,1.59,5.64.31,8.53a.31.31,0,0,1-.48.14,3.48,3.48,0,0,1-.58-.51,25.46,25.46,0,0,0-8.36-5.53c-.17-.07-.34-.17-.67-.33A7.87,7.87,0,0,1,48.93,412.63ZM30.45,474.8c-.53-.14-.4-.51-.4-.8,0-1.94,0-3.88,0-5.71a.81.81,0,0,1,1,0c.93.43,1.88.83,3,1.32A58.27,58.27,0,0,1,30.45,474.8ZM60.2,454.9c-.42,1.07-.44,1.06-1.53,1-.13,0-.26,0-.38,0-.34,0-.7,0-.8.39s.23.68.64.78a2.66,2.66,0,0,1,.55.16.37.37,0,0,1,.21.47.36.36,0,0,1-.07.18,22.6,22.6,0,0,1-6.26,7.34c-.68-.36-.85-1.05-1.31-1.5a.7.7,0,0,0-.7-.23c-.23.08-.36.58-.22.86a3.93,3.93,0,0,0,.49.84c.55.64.43,1-.25,1.37A18.2,18.2,0,0,1,38.66,469c0-.36.06-.62.07-.88,0-.94-.09-1.29-.48-1.26-.63,0-.6.58-.7,1s0,.66-.28.91c-3.46-.13-8.61-2.77-11.55-6,.17-.57.92-.65,1.14-1.17a.64.64,0,0,0,0-.54.58.58,0,0,0-.49-.21,5.85,5.85,0,0,0-1,.5c-.71.4-.74.42-1.27-.19a28.24,28.24,0,0,1-3.91-5.82.81.81,0,0,1,.23-1.17,5.87,5.87,0,0,0,.85-.8.58.58,0,0,0,0-.53.65.65,0,0,0-.48-.26c-.55,0-.87.53-1.44.68a10.21,10.21,0,0,1-1.1-2.85,26.55,26.55,0,0,1-1.08-5.14c-.05-.52,0-.89.65-1a1.3,1.3,0,0,0,.53-.22c.29-.16.22-.59,0-.8s-1,0-1.24-.43a3.37,3.37,0,0,1-.13-1.73,30,30,0,0,1,1.9-9.91c.26-.69.32-.7,1.09-.46.12,0,.25.13.36.11a1,1,0,0,0,.52-.17c.24-.22.11-.46,0-.69-.24-.39-.79-.49-.91-1.08a22.57,22.57,0,0,1,8.33-9.32,9.15,9.15,0,0,1,1.4,2.12,7.54,7.54,0,0,0,.49.83.51.51,0,0,0,.7.12.68.68,0,0,0,.24-.49,3.48,3.48,0,0,0-.55-1.44,6.58,6.58,0,0,1-.93-1.79,16.11,16.11,0,0,1,6.55-2.13,18.94,18.94,0,0,1,2.14-.1c1.17,0,1.17,0,1.53,1.18a2.11,2.11,0,0,0,.22.53.48.48,0,0,0,.31.19c.21,0,.35-.08.48-.23.37-.42-.06-1,.44-1.51a21.65,21.65,0,0,1,10.34,4.52c.66.51.65.53.31,1.45a3.6,3.6,0,0,0-.22.54.43.43,0,0,0,.22.49c.17.09.35.19.53,0s.36-.36.55-.53.28-.23.45-.37a26.61,26.61,0,0,1,5.38,7.16.69.69,0,0,1-.18,1,12.76,12.76,0,0,0-1.17,1,.57.57,0,0,0,0,.86.52.52,0,0,0,.71,0c.25-.2.5-.42.76-.61s.44-.25.7-.39A29.07,29.07,0,0,1,62,440.91a.7.7,0,0,1-.45.78c-.47.21-1,.38-1.43.61a.57.57,0,0,0-.33.64c.09.43.44.4.76.4s.81-.44,1.3-.33c.24.06.27.27.27.45A27.6,27.6,0,0,1,60.2,454.9Zm7.33,0c-1.61-.08-3.27-.23-4.92-.44-.53-.06-.68-.31-.55-.79s.25-.87.38-1.3L63.1,450c1,.18,1.43,1,2.06,1.63.84.8,1.55,1.74,2.32,2.62A.57.57,0,0,1,67.53,454.94Z"/><path fill="#887b7b" d="M166.32,478.53c.69-.21.92.32,1.23.74h-4.69a.65.65,0,0,1,0-.34C163.89,477.81,165.2,478.93,166.32,478.53Z"/><path fill="#030303" d="M237.09,160.47a.58.58,0,0,1-.43.57.57.57,0,0,1-.67-.24,3.31,3.31,0,0,1-.3-.72,77.13,77.13,0,0,0-8.25-17.38,240.52,240.52,0,0,0-17.19-24.14,99.73,99.73,0,0,0-8.13-8.69c-.71-.67-1.39-1.36-2.07-2.07a.54.54,0,0,1,0-.71.5.5,0,0,1,.7-.1,6.26,6.26,0,0,1,.91.72,103.74,103.74,0,0,1,14.21,15.77A244.79,244.79,0,0,1,230.94,146a77.51,77.51,0,0,1,5.74,12.78A4.09,4.09,0,0,1,237.09,160.47Z"/><path fill="#040303" d="M188 106.46a1.37 1.37 0 011 .42 43.65 43.65 0 015.33 4.56c1.9 2 3.81 3.91 5.64 5.93a167.91 167.91 0 0118.34 23.74c2.62 4.18 5.18 8.41 7.52 12.76a16.45 16.45 0 01.83 1.75.61.61 0 01-.37.8.54.54 0 01-.68-.22 6.24 6.24 0 01-.49-.83 185 185 0 00-16.38-25.57 204.76 204.76 0 00-15.61-17.69 47.69 47.69 0 00-4.84-4.24 3.37 3.37 0 01-.7-.66c-.08-.11 0-.37.05-.53S187.92 106.54 188 106.46zM54.17 361.23a.61.61 0 01-.46.65 2.32 2.32 0 01-1.22-.53 63.47 63.47 0 01-7.23-5.29 78.88 78.88 0 01-18.39-22.52q-2.14-4-4.28-8.09a7.77 7.77 0 01-.41-.88c-.11-.32-.1-.67.28-.81a.69.69 0 01.85.29c.31.49.57 1 .85 1.53 1.63 3 3.19 6.1 4.9 9.09A77.26 77.26 0 0052.63 360c.43.29.87.57 1.28.88A1.24 1.24 0 0154.17 361.23z"/><path fill="#050404" d="M18.56,302.39c.15.08.37.14.47.28a9.16,9.16,0,0,1,.7,1.16c.77,1.58,1.5,3.17,2.29,4.74A89.59,89.59,0,0,0,38.75,332a58.28,58.28,0,0,0,6.35,5.49,4.78,4.78,0,0,1,.86.76.54.54,0,0,1-.5.78,4.57,4.57,0,0,1-1-.53,49.35,49.35,0,0,1-6-5,89.74,89.74,0,0,1-16.91-23c-1.15-2.19-2.17-4.44-3.25-6.66a1.44,1.44,0,0,1-.26-.92C18.06,302.61,18.28,302.49,18.56,302.39Z"/><path fill="#060404" d="M166.32,478.53c-.17.33-.49.36-.81.37l-2.66,0c-2.06-.79-4.13-1.54-6.17-2.38a74.73,74.73,0,0,1-20.35-12.44,60.26,60.26,0,0,1-5.66-5.64,7.34,7.34,0,0,1-.81-1.09.48.48,0,0,1,0-.69.62.62,0,0,1,.87.05,1.8,1.8,0,0,1,.26.29c9.22,10.29,20.7,17,33.79,21.06Z"/><path fill="#080707" d="M119.81,143.65a8.21,8.21,0,0,1,.68-3,32.85,32.85,0,0,1,6.83-10.8c1.63-1.68,3.28-3.34,4.93-5,.28-.27.5-.63.92-.67a1,1,0,0,1,.53.15.43.43,0,0,1,.16.52,2.38,2.38,0,0,1-.8,1.08c-1.22,1.26-2.44,2.52-3.71,3.74A33.13,33.13,0,0,0,122.17,140a10.67,10.67,0,0,0-1.17,3.7,1.33,1.33,0,0,1-.07.38.6.6,0,0,1-.57.44.49.49,0,0,1-.51-.47C119.82,143.87,119.82,143.68,119.81,143.65Z"/><path fill="#0a0808" d="M123.93,148.35a2,2,0,0,1-.39-.37.83.83,0,0,1,0-.75c2.63-6.27,6.16-11.89,11.57-16.16a7.1,7.1,0,0,1,.8-.55.8.8,0,0,1,.75,0,.6.6,0,0,1,.21.83,2.67,2.67,0,0,1-.44.38,35.14,35.14,0,0,0-9.82,12c-.73,1.37-1.38,2.8-2.06,4.2A.78.78,0,0,1,123.93,148.35Z"/><path fill="#0c0909" d="M40.55,166.85a45.13,45.13,0,0,1,10.1.68c.7.15,1.4.3,2.09.5a2.7,2.7,0,0,1,.81.49.38.38,0,0,1,.09.52c-.11.14-.26.33-.41.36a1.51,1.51,0,0,1-.76,0,30.18,30.18,0,0,0-9.45-1.1,66.71,66.71,0,0,0-9.16.37,2.55,2.55,0,0,1-.39,0c-.46,0-.85-.3-.8-.64s.35-.5.69-.56C35.87,167,38.41,167,40.55,166.85Z"/><path fill="#0b0606" d="M41,173.41a44.51,44.51,0,0,1,8.69.91,28.15,28.15,0,0,1,5.49,1.92,1.87,1.87,0,0,1,.46.35.4.4,0,0,1,.07.53.73.73,0,0,1-.42.34,3,3,0,0,1-1.66-.42,22,22,0,0,0-5.19-1.59,53,53,0,0,0-10.06-.85c-.47,0-1.08.27-1.35-.39-.18-.47.24-.76,1.25-.79S40.13,173.41,41,173.41Z"/><path fill="#0b0a0a" d="M69.13,396a6.61,6.61,0,0,1-.19.68q-2.09,6-4.18,11.9a.7.7,0,0,1-.87.52.41.41,0,0,1-.24-.27,3.07,3.07,0,0,1,0-1c.26-.93.53-1.87.85-2.78Q66,401,67.39,397a11,11,0,0,1,.61-1.42.57.57,0,0,1,.67-.26C69,395.4,69.05,395.65,69.13,396Z"/><path fill="#0b0909" d="M68.22,410.63a.5.5,0,0,1-.41-.56,3.68,3.68,0,0,1,.34-.69q3.24-4.63,6.51-9.25a5.07,5.07,0,0,1,1.28-1.45.56.56,0,0,1,.71,0,.61.61,0,0,1,.19.85,3.19,3.19,0,0,1-.23.32L70,409c-.34.47-.68.95-1,1.4A.69.69,0,0,1,68.22,410.63Z"/><path fill="#0c0909" d="M72,414.05c-.11-.07-.33-.14-.41-.28a.75.75,0,0,1,0-.55,1.08,1.08,0,0,1,.36-.44c3.37-2.62,6.7-5.3,10.22-7.72l.34-.19c.2-.13.36,0,.52.09a.53.53,0,0,1,.16.69,1.84,1.84,0,0,1-.51.57l-9.54,7.33A1.69,1.69,0,0,1,72,414.05Z"/><path fill="#292121" d="M90.41,99.6c-1.24,0-2.48,0-3.71,0-.25,0-.54,0-.72-.2a.88.88,0,0,1-.26-.48.65.65,0,0,1,.24-.49,2.28,2.28,0,0,1,.92-.24q4,0,8,0c.39,0,.79.08.93.53s-.28.75-.92.76c-1.49,0-3,0-4.48,0Z"/><path fill="#100e0e" d="M76.84,87.81a.67.67,0,0,1-.56-.67,2.33,2.33,0,0,1,.21-.54l4.71-7.84c.21-.33.45-.66.93-.53s.41.66.11,1.18Q80,83.28,77.72,87.14A1.07,1.07,0,0,1,76.84,87.81Z"/><path fill="#141111" d="M89,87.19a.63.63,0,0,1-.2.7c-.58.6-1.16,1.21-1.76,1.8-1,1-2,2-3.07,3a3.79,3.79,0,0,1-.93.67.56.56,0,0,1-.69-.19.52.52,0,0,1,0-.69,1.48,1.48,0,0,1,.25-.3c1.73-1.65,3.45-3.3,5.2-4.93a1.55,1.55,0,0,1,.66-.37C88.64,86.75,88.84,87,89,87.19Z"/><path fill="#f38704" d="M88.23 245.7c.52.25 1 .54 1.58.75a5 5 0 002.87.27c2.48-.56 5-1.05 7.38-1.84a18.75 18.75 0 004.55-2.2 4 4 0 002.08-3.71 4.41 4.41 0 01.45-2.08 2.86 2.86 0 000-2.46 6.92 6.92 0 01-.51-3.43 3.64 3.64 0 00-3.39-4 11.44 11.44 0 00-3.5.12 43.77 43.77 0 00-8 2.42c-2.25.87-4.48 1.76-6.74 2.58a7.36 7.36 0 01-3.64.45 1.84 1.84 0 01-1.62-1.12 20.39 20.39 0 01-1.59-5.81 36.81 36.81 0 010-10.89 2 2 0 01.16-.33c.4-.11.58.22.82.41.77.6 1.48 1.28 2.3 1.81 4.26 2.76 8.54 5.48 12.81 8.22a5.45 5.45 0 006.72-.26c4.59-3.47 7.65-7.92 8.44-13.74.26-1.87.53-3.73.77-5.6a.73.73 0 01.57-.69c.76-.18 1.52-.38 2.28-.53 1.41-.27 2.82-.48 4.22-.77a1.38 1.38 0 011.39.48 14.25 14.25 0 012.25 2.94 52.23 52.23 0 014.63 11.76 13.9 13.9 0 00.55 2.86c.1.2 0 .51 0 .76a19.05 19.05 0 00-.06 5.06c.43 4.8 1.06 9.57 1.82 14.32a210 210 0 004.81 23.68c.09.31.16.63.25.94a1.12 1.12 0 01-.43 1.37c-.37.26-.72.56-1.09.83-3.71 2.75-7.43 5.48-11.12 8.26-1.45 1.1-2.82 2.3-4.23 3.46-.88.72-.9.73-1.7-.17-1.64-1.84-3.27-3.71-4.92-5.55a257.35 257.35 0 01-17.67-21.84 74.78 74.78 0 01-4.26-6.3C87.39 245.47 87.7 245.38 88.23 245.7zM119.72 202.87l6.68-.9c3.48-.46 7-.79 10.47-1a72.23 72.23 0 0110.51.37c3 .26 6.08.61 9.11.93 1 .11 2.06.29 3.1.35 1.63.1 1.52.16 1.84 1.65a49 49 0 01.88 5.77 15.75 15.75 0 01-.37 4.84c-.24 1.08-.58 2.13-.83 3.21a1.65 1.65 0 01-1.26 1.32 38.43 38.43 0 01-5.71 1.22 111.35 111.35 0 01-17.12.77c-2.79-.1-5.56-.51-8.34-.79a8.14 8.14 0 01-1-.22.85.85 0 01-.74-.77c-.71-4.62-2.6-8.82-4.64-13A22.39 22.39 0 00119.72 202.87zM239.83 431.73c1.36.87 2.44 1.58 3.54 2.25a36 36 0 003.74 2.09 1.74 1.74 0 011.13 2.52c-.41 1.3-.88 2.59-1.37 3.86-.3.77-.53.83-1.36.52-.6-.23-1.19-.53-1.81-.7a1.94 1.94 0 00-2.65 1.55 8.39 8.39 0 00-.23 2.91c.48 5.11-1.53 9.26-5 12.82a10.05 10.05 0 01-3.35 2.31 49.51 49.51 0 01-10 3.15 4.88 4.88 0 01-2.31-.15 3.11 3.11 0 01-2.18-2.29c-.31-1.16-.14-1.49 1-1.93.66-.27 1.35-.49 2-.82a3 3 0 012-.43 2.32 2.32 0 001.82-.57A22.25 22.25 0 00227 457a57.42 57.42 0 009.5-12.57 34.85 34.85 0 003.08-7.78A12.73 12.73 0 00239.83 431.73zM56.64 221.52a2.61 2.61 0 01.64-.4 94.28 94.28 0 0011.4-4.54c2.33-1 4.64-2.05 6.95-3.08.35-.16.71-.29 1.15-.46a3.19 3.19 0 010 2.13 35.73 35.73 0 00-.37 6 29.45 29.45 0 001.92 10.72 3.87 3.87 0 01-2.14-.08c-3.92-.63-7.74-1.68-11.58-2.65a4 4 0 01-3.11-2.46c-.91-2.15-2.7-3.63-4.38-5.17-.11-.1-.36-.05-.55-.07zM144.17 376.11a47.74 47.74 0 015.19 5.26c1.67 2.05 1.69 2.39-.13 4.23a5.63 5.63 0 00-1.62 3.44 25.53 25.53 0 01-1.48 6 86.25 86.25 0 01-6.68 14.07 17.33 17.33 0 01-2.73 3.54 6.9 6.9 0 01-1.87 1.39 1.43 1.43 0 01-1.92-.35 4.77 4.77 0 01-1.29-2.58 6.84 6.84 0 011.47-5.65c.73-.92 1.42-1.86 2.16-2.76s1.37-1.56 2.06-2.34A27.7 27.7 0 00144.1 387a21.3 21.3 0 00-.45-10.4C143.56 376.17 143.76 376 144.17 376.11zM162.58 202.45c.83 0 1.6 0 2.37-.07a20.88 20.88 0 002.52-.27 5.68 5.68 0 013.62.36 16.49 16.49 0 003.57.94c.87.19 1.05.49 1 1.38-.22 2.14-.45 4.27-.66 6.4A12 12 0 01173.5 216c-.65 1.13-1.23 2.29-1.83 3.44a9.43 9.43 0 01-1.43 2.09 3.32 3.32 0 01-3.16 1.15 5.82 5.82 0 01-4.37-2.94 2 2 0 01-.27-1.48c.17-.69.3-1.4.51-2.08a18.21 18.21 0 00.45-8.3c-.23-1.54-.55-3.07-.81-4.6A5.56 5.56 0 01162.58 202.45z"/><path fill="#ec8304" d="M56.61,221.48a.92.92,0,0,0,.06,1.24c.4.42.81.84,1.24,1.23a9.92,9.92,0,0,1,2.19,2.87c-.23.44-.47.21-.66.11-.75-.38-1.48-.81-2.23-1.19a13.49,13.49,0,0,0-6.15-1.62l-.73,0c.07-.22.07-.39.15-.43a31.07,31.07,0,0,1,4.83-2,2.33,2.33,0,0,1,1.33-.1Z"/><path fill="#eb8304" d="M108.56,180a11.63,11.63,0,0,0-.25-2.68.8.8,0,0,1,.49-1,.86.86,0,0,1,1,.25,2.15,2.15,0,0,1,.58.77,8.28,8.28,0,0,1-.25,6.44.93.93,0,0,1-1.3.49.9.9,0,0,1-.68-1.2A10.86,10.86,0,0,0,108.56,180Z"/><path fill="#9f6203" d="M88.23,245.7c-.35,0-.69.06-.85.43a1.28,1.28,0,0,1-.59-.74.39.39,0,0,1,0-.35.36.36,0,0,1,.33-.09A2,2,0,0,1,88.23,245.7Z"/><path fill="#ab6803" d="M144.17,376.11l-.52.49c-.45-.32-.38-.85-.77-1.48A1.82,1.82,0,0,1,144.17,376.11Z"/><path fill="#e78104" d="M53.2,225.73a6.9,6.9,0,0,0-3.6-.3h0a1.81,1.81,0,0,0-1.6.32h0l-.73.07a10.2,10.2,0,0,0-1.1,0,.31.31,0,0,0-.31.35c0,.15.14.18.29.15.36-.08.73-.13,1.09-.19h0l3.13,0,1.17,0h0A9.22,9.22,0,0,1,55,227.42a5.87,5.87,0,0,0,3.43.64A10.53,10.53,0,0,0,53.2,225.73Z"/><path fill="#e78104" d="M52.3,227.71h0c-.43-.61-1-.41-1.62-.35h0a20.09,20.09,0,0,0-7.31.75,2,2,0,0,0-1.34,1c-.36.64-.87,1.27-.47,2.21a19.38,19.38,0,0,1,6.13-2.55c.89-.21,1.76-.44,2.65-.66h0l1.15-.05a5.3,5.3,0,0,0,.69,0C52.38,228,52.48,227.9,52.3,227.71Z"/><path fill="#f38704" d="M66.77,137.68c-1.38.63-32.7,9.1-36.11,9.77-.38-.38-.23-.85-.18-1.27a36,36,0,0,1,1.77-7.58,2.06,2.06,0,0,1,1.67-1.42l7.57-1.85c6.31-1.55,12.62-3.09,18.92-4.68a1.68,1.68,0,0,1,1.9.49,28.65,28.65,0,0,1,4.33,6A2,2,0,0,1,66.77,137.68Z"/><path fill="#ed8404" d="M48.4,120.65a15.59,15.59,0,0,1-4.25,2.73,13,13,0,0,1-8.6.41c-.3-.39.05-.51.28-.67l11.78-2.86C48,120.08,48.42,119.94,48.4,120.65Z"/><path fill="#5f4101" d="M48.4,120.65c-.15-.36-.52-.29-.79-.39a1,1,0,0,1,.85-.37c.19,0,.4,0,.42.26a.48.48,0,0,1-.15.32A1.16,1.16,0,0,1,48.4,120.65Z"/><path fill="#a23502" d="M35.83,123.12c-.09.22-.18.45-.28.67-.25,0-.52,0-.59-.24,0-.09.19-.31.34-.38A1.52,1.52,0,0,1,35.83,123.12Z"/><path fill="#f49725" d="M46.24,125.17h0Z"/><path fill="#0c0808" d="M169.05,231.82c0-.21,0-.28,0-.34a1.36,1.36,0,0,1,.86-1.39,1.44,1.44,0,0,1,1.51,1,1.85,1.85,0,0,1,.08,1.33,1.25,1.25,0,0,1-1.15.89,1.21,1.21,0,0,1-1.18-.84A4,4,0,0,1,169.05,231.82Z"/><path fill="#0f0b0b" d="M83.7,195.78c-.48-.23-.88,0-1.3.17a20,20,0,0,1-3.68,1.2,6.37,6.37,0,0,1-1.15.09.37.37,0,0,1-.38-.37.73.73,0,0,1,.64-.79,21.52,21.52,0,0,0,4.4-1.49,5.82,5.82,0,0,1,.92-.3,1.51,1.51,0,0,1,1.94,2,4.75,4.75,0,0,1-2.56,2.77c-.11,0-.36-.08-.5-.19a.47.47,0,0,1-.11-.69c.28-.34.63-.63.94-1S83.75,196.45,83.7,195.78Z"/><path fill="#0a0909" d="M78.47,183.05a2.6,2.6,0,0,1-1,1.91,1.54,1.54,0,0,1-2.54-.6A2.77,2.77,0,0,1,76.26,181a1.32,1.32,0,0,1,1.73.41A2.66,2.66,0,0,1,78.47,183.05Z"/><path fill="#080505" d="M88.47,183.32c0,1.25-.63,2.15-1.55,2.23a1.84,1.84,0,0,1-1.82-1.86,2.24,2.24,0,0,1,.49-1.81,1.5,1.5,0,0,1,2.64.43A6,6,0,0,1,88.47,183.32Z"/><path fill="#161111" d="M79.47,192.58a1.87,1.87,0,0,1-2.07-2,1.24,1.24,0,0,1,.36-.87c.15-.17.58-.16.67,0a3,3,0,0,1,.22.52c.32,1.08.47,1.2,1.41,1,.49-.12,1-.33,1.46-.49a4.73,4.73,0,0,1,.74-.19.59.59,0,0,1,.64.32.64.64,0,0,1-.16.71.33.33,0,0,1-.14.12A7.15,7.15,0,0,1,79.47,192.58Z"/><path fill="#1a1616" d="M84,180.06a1.91,1.91,0,0,1-.38-.33.45.45,0,0,1,0-.36,1.12,1.12,0,0,1,.32-.46c1.16-.69,2.33-1.37,3.51-2a.83.83,0,0,1,.55-.1.84.84,0,0,1,.45.32.41.41,0,0,1,0,.53.92.92,0,0,1-.26.29c-1.23.7-2.47,1.39-3.71,2.07A1.47,1.47,0,0,1,84,180.06Z"/><path fill="#1b1414" d="M76,175.88c.13,0,.32,0,.37,0a15.32,15.32,0,0,0,3,2.71,1,1,0,0,1,.24.3.61.61,0,0,1,0,.72.52.52,0,0,1-.7.12,15,15,0,0,1-2.61-2,2.25,2.25,0,0,1-.75-1.11A.77.77,0,0,1,76,175.88Z"/><path fill="#0f0800" d="M170.61,210.21c-.12.79-.24,1.82-.42,2.85a1.18,1.18,0,0,1-.63.93.45.45,0,0,1-.36,0,.8.8,0,0,1-.38-.39,1.07,1.07,0,0,1,0-.56,15,15,0,0,0-.61-8.62,5.54,5.54,0,0,1-.33-1.1.48.48,0,0,1,.41-.57.83.83,0,0,1,.54.12,2.57,2.57,0,0,1,.68,1.16A18.89,18.89,0,0,1,170.61,210.21Z"/><path fill="#130b00" d="M167.11,208.48a16.79,16.79,0,0,1-.43,3.7,7,7,0,0,1-.51,1.46.63.63,0,0,1-.77.43.54.54,0,0,1-.36-.76,16.44,16.44,0,0,0,.5-7.31c0-.38-.06-.8.42-1s.72.16.87.78A8.93,8.93,0,0,1,167.11,208.48Z"/><path fill="#010101" d="M297.62 112.43c0 4.3.55 8.56.92 12.84.35 4.09.77 8.17 1 12.26.36 6.69.55 13.39.87 20.09.28 6 .64 12 1 17.93.59 10.14 1.4 20.26 1.68 30.41.24 8.59.38 17.18.6 25.77.24 9.18.48 18.35.79 27.52.26 7.48.62 15 .94 22.44.38 8.84.82 17.68 1.11 26.53.27 8.26.38 16.52.56 24.79.12 5.66.3 11.32.34 17 .06 6.77.06 13.54-.34 20.3a8.85 8.85 0 01-.16 1.55 3.08 3.08 0 01-.48 1 .5.5 0 01-.69.15.87.87 0 01-.29-.46.62.62 0 010-.38 21.42 21.42 0 00.42-5.05c.08-2.47.08-4.95.17-7.42.24-6.57 0-13.14-.15-19.72-.18-8.85-.3-17.7-.53-26.55-.14-5.14-.44-10.27-.66-15.41-.31-7.48-.51-15-.93-22.43-.63-11.44-.81-22.9-1.13-34.35s-.58-22.77-.89-34.16q-.31-10.92-1.09-21.83c-.48-6.76-.73-13.52-1.18-20.27-.54-8.12-.63-16.26-1.1-24.38-.34-5.85-.76-11.69-1.4-17.51A105.68 105.68 0 01296.3 112c0-1 .09-2.08.14-3.12a1.12 1.12 0 01.36-.87.79.79 0 01.53-.1.35.35 0 01.25.24 7.71 7.71 0 010 1C297.63 110.22 297.62 111.32 297.62 112.43zM312.21 204.54c.29 6.72.64 15 1 23.24q.6 14.15 1.17 28.28t1.18 28.29l1.17 28.28c0 1.37.09 2.73.11 4.1a2.76 2.76 0 01-.13.95.58.58 0 01-.45.27.67.67 0 01-.48-.25 2.6 2.6 0 01-.23-1.51c-.15-3.58-.29-7.15-.44-10.73q-.35-8.38-.71-16.77-.54-12.78-1.09-25.55l-1.17-28.29q-.58-14.15-1.18-28.28l-1.17-28.29q-.58-14-1.16-28.08t-1.18-28.29q-.58-14.23-1.18-28.48c-.07-1.69-.12-3.38-.16-5.07 0-.39 0-.8.51-.92s.74.23.77.87c.15 3.38.28 6.76.43 10.15q.54 12.87 1.09 25.74.6 14.14 1.18 28.29l1.17 28.28C311.55 188.18 311.85 195.59 312.21 204.54zM452.2 260.82q.62 16.29 1.24 32.58c.31 8.32.55 16.65.91 25 .25 5.85.65 11.7 1 17.55.24 4.61.43 9.23.63 13.84q.35 7.51.65 15c.23 5.79.47 11.58.65 17.37.1 3.31.1 6.63.13 10a1.2 1.2 0 01-.35 1.07c-.18.15-.58.14-.68-.06a1.55 1.55 0 01-.23-.53 10.24 10.24 0 01-.09-1.36c-.07-9.76-.43-19.52-.91-29.27-.49-10-.79-20-1.34-30q-1-17.75-1.55-35.5c-.27-9-.72-17.95-1-26.92-.26-7.55-.36-15.1-.63-22.64-.3-8.2-.57-16.4-1.09-24.58-.76-12-.84-24.06-.68-36.1.12-8.53-.06-17.06-.46-25.58s-.93-16.89-1.36-25.34c-.17-3.44-.44-6.88-.83-10.31a34.14 34.14 0 01-.08-3.51 1.17 1.17 0 01.27-.9.43.43 0 01.51-.16c.11.06.24.13.28.23a1.21 1.21 0 01.13.56 35.57 35.57 0 00.41 5.83c.21 2.4.48 4.79.62 7.19.32 5.53.58 11.05.86 16.58.17 3.44.35 6.88.51 10.33.44 9.43.61 18.86.42 28.3-.2 9.7-.06 19.4.56 29.08.24 3.83.36 7.67.53 11.51.24 5.2.51 10.4.7 15.6s.28 10.15.41 15.22zM466.29 341.33c0 7.28 0 14.11.25 20.95.28 7.15.48 14.3.81 21.45.51 11.32 1 22.63 1.24 33.95a17.88 17.88 0 01-.06 1.94.76.76 0 11-1.49-.31 5.22 5.22 0 00.17-1.92c-.12-7.55-.34-15.1-.72-22.64-.27-5.39-.45-10.79-.66-16.19-.46-12-1-23.92-.95-35.9q0-10.85-.25-21.67-.21-9.57-.68-19.12c-.4-8.19-.91-16.37-1.38-24.56q-.45-7.69-.94-15.39c-.45-7.08-1-14.15-1.37-21.23-.29-5.46-.38-10.93-.59-16.39-.23-6.24-.48-12.48-1-18.71-.36-4.61-.63-9.22-1-13.83-.38-5.51-.7-11-1.2-16.54-.33-3.69-.92-7.36-1.38-11a19.22 19.22 0 01-.14-2.14.56.56 0 01.62-.6.58.58 0 01.5.52l.36 2.51c.74 4.89 1.39 9.79 1.73 14.72q.7 10.43 1.45 20.84c.65 9.21 1.2 18.44 1.42 27.68.12 5.13.37 10.27.66 15.4.42 7.15.94 14.29 1.4 21.43q.48 7.59.92 15.2c.35 6 .72 12.08 1 18.12.28 5.59.43 11.19.7 16.78s.23 11.06.34 16.59C466.19 334.75 466.23 338.26 466.29 341.33z"/><path fill="#f4921b" d="M46.33,129.68c-.2.24-.29.44-.44.51a.65.65,0,0,1-.53,0,5.4,5.4,0,0,1-1.57-2.36c0-.11.1-.37.23-.46a.6.6,0,0,1,.53-.07C45.45,127.86,45.75,128.87,46.33,129.68Z"/><path fill="#f49725" d="M47.47,127.85c-.08.22-.14.48-.44.55a.61.61,0,0,1-.67-.26c-.43-.52-.42-1.21-.68-1.8-.16-.36.31-.72.72-.62a.91.91,0,0,1,.7.61C47.25,126.82,47.34,127.33,47.47,127.85Z"/><path fill="#060404" d="M372.71,59.67l1.07-.48a5,5,0,0,1,3.77-.39,4.51,4.51,0,0,0,1.16.16,4.33,4.33,0,0,0,3.75-1.2c.38-.42.79-.38,1-.07a.79.79,0,0,1-.13,1.06,4.25,4.25,0,0,1-2.87,1.46,9.79,9.79,0,0,1-2.91-.06,4.53,4.53,0,0,0-4.48,1.18.8.8,0,0,1-1.45-.43,17.16,17.16,0,0,1-.52-3.85,2.36,2.36,0,0,1,1.18-2.1,12.82,12.82,0,0,1,2.45-1.17,21.28,21.28,0,0,0,2.14-.93,3.46,3.46,0,0,0,1.76-2,2.65,2.65,0,0,0-1.9-3.62,5,5,0,0,0-3.08.12c-1.29.5-2.47,1.25-2.32,3a.56.56,0,0,1-.42.58c-.4.13-.59-.15-.74-.45a1.68,1.68,0,0,1,0-1.32,4.57,4.57,0,0,1,2.56-2.79,6.13,6.13,0,0,1,4.55-.34,4,4,0,0,1,2.5,5.62,4.84,4.84,0,0,1-2.05,2.28,17.64,17.64,0,0,1-1.76.82c-.65.28-1.33.5-2,.81-1.49.7-1.6.91-1.45,2.54C372.57,58.53,372.63,59,372.71,59.67Z"/><path fill="#050505" d="M37.94,439.12l-1.11-9.47a56.16,56.16,0,0,0-.87-5.77,2.21,2.21,0,0,1,0-.77.44.44,0,0,1,.37-.39.53.53,0,0,1,.62.33,10.07,10.07,0,0,1,.46,1.69c.3,1.79.61,3.58.84,5.38.31,2.51.55,5,.83,7.55a5.2,5.2,0,0,0,1,3.09,2.19,2.19,0,0,1,.28,1.69,1.32,1.32,0,0,1-1,1.12,1.26,1.26,0,0,1-1.25-.33,1,1,0,0,1-.38-.43c-.3-.91-1.1-1.21-1.83-1.64-2.67-1.6-5.33-3.22-8-4.83a2.61,2.61,0,0,1-.46-.34.54.54,0,0,1-.09-.71.62.62,0,0,1,.5-.2,8.14,8.14,0,0,1,1.42.62c2.07,1.21,4.13,2.44,6.19,3.66.5.3,1,.6,1.53.86s1,0,.93-.71l0-.39Z"/><path fill="#070606" d="M245 264.53a3.37 3.37 0 00-.39-.66c-1.44-1.83-2.89-3.66-4.35-5.47a2.7 2.7 0 00-.72-.63.52.52 0 00-.7.14 4.31 4.31 0 00-.45.85c-.7 1.81-1.37 3.63-2.08 5.43-.61 1.53-.46 2 1.38 1.8l6-.48a4 4 0 001-.21A.59.59 0 00245 264.53zm-2.52-.29c-1.48.13-3 .23-4.44.34-.1-1.11.44-2.76 1.58-4.81 1.15 1.28 2.13 2.62 3.17 3.93C242.92 263.89 242.74 264.22 242.46 264.24zM243 293.09a23.92 23.92 0 00-2.39.13 12.78 12.78 0 01-1.64.08c-.6 0-1.2 0-1.8 0-1.14 0-1.35.45-.75 1.48a34.87 34.87 0 002.06 3.29c.86 1.13 1.84 2.17 2.81 3.21a.69.69 0 001.18-.32q.73-3.42 1.38-6.86A.79.79 0 00243 293.09zm-1.66 6.18a14 14 0 01-3.32-4.5 4.75 4.75 0 012.08-.25c.7 0 1.41 0 2.33 0A25.62 25.62 0 01241.33 299.27z"/><path fill="#060505" d="M363.89,47.46c-.26,0-.51.07-.77.1l-6.95.93a4.82,4.82,0,0,0-.75.18.7.7,0,0,0-.5.9,5.48,5.48,0,0,0,.94,2.12l4.82,7.08a7.92,7.92,0,0,0,.84,1.07.57.57,0,0,0,1-.14,7.15,7.15,0,0,0,.35-1.11c.43-2.09.85-4.19,1.28-6.29.26-1.27.54-2.53.74-3.48C364.94,47.69,364.67,47.4,363.89,47.46Zm-.77,3.17c-.46,2.22-.94,4.43-1.5,7-.64-.89-1.06-1.45-1.45-2q-1.71-2.47-3.38-5c-.36-.53-.22-.86.39-.95,1.48-.21,3-.35,4.43-.59C363.39,48.83,363.55,48.53,363.12,50.63Z"/></g></svg>